<svg xmlns="http://www.w3.org/2000/svg" viewBox="0 0 500 500"><g id="freepik--Floor--inject-3"><ellipse id="freepik--floor--inject-3" cx="250" cy="350.04" rx="235.59" ry="136.02" style="fill:#f0f0f0"></ellipse></g><g id="freepik--Shadow--inject-3"><path id="freepik--shadow--inject-3" d="M207,477.06,60.83,392.51c-6-3.44-6-9.09,0-12.53L299.47,242.21a9.91,9.91,0,0,1,8.94,0l160,84.51a2.67,2.67,0,0,1,0,4.62L215.91,477.06A9.91,9.91,0,0,1,207,477.06Z" style="fill:#e0e0e0"></path></g><g id="freepik--Plants--inject-3"><g id="freepik--plants--inject-3"><path d="M417.37,299.78l-9.88-5.2s-3.22-22.65.18-41.35c4.77-26.28,22.95-35,29.41-32.19s7.82,10.62-4.32,25.59C425.6,255.47,417.71,275.29,417.37,299.78Z" style="fill:#B0A5F1"></path><g style="opacity:0.15"><path d="M417.37,299.78l-9.88-5.2s-3.22-22.65.18-41.35c4.77-26.28,22.95-35,29.41-32.19s7.82,10.62-4.32,25.59C425.6,255.47,417.71,275.29,417.37,299.78Z"></path></g><path d="M413.13,288.21h.08a.59.59,0,0,0,.52-.65c-2.84-24.78,7.71-51.61,19.13-62.26a.59.59,0,0,0-.81-.86c-11.62,10.84-22.38,38.11-19.49,63.25A.57.57,0,0,0,413.13,288.21Z" style="fill:#fff"></path><path d="M439.65,312.12c1.29.78,4.1-.6,5.15-1.27a12.37,12.37,0,0,0,4.25-4.66,11.63,11.63,0,0,0,1.2-7,28.44,28.44,0,0,0-.8-3.75l-1-3.64a9.17,9.17,0,0,1-.44-3.66c.37-2.47,2.61-4.15,4.64-5.6,2.24-1.61,4.59-3.73,4.65-6.71a10.53,10.53,0,0,0-2.48-6.3c-1.38-1.84-3-3.47-4.28-5.4a7.3,7.3,0,0,1-1.39-4.67,7.58,7.58,0,0,1,1.07-2.87c1.1-1.91,2.53-3.66,3.3-5.72s.73-4.66-.86-6.19c-1.31-1.26-3.29-1.47-5.1-1.4-3.14.14-6.2,2.36-8.7,4.09s-4.45,4.11-7.31,5.13c-3.76,1.33-8.75.55-11.25,4.38-2.15,3.32-.59,7-.38,10.57.35,5.67-5,7.79-7.61,11.9a7.32,7.32,0,0,0-1,4.5,21.56,21.56,0,0,0,1.73,7.69c1,2.5,4,8.08,4,8.08S439.46,312,439.65,312.12Z" style="fill:#B0A5F1"></path><path d="M426.5,304.86h0a.59.59,0,0,0,.59-.6c-.44-23.4,11.18-48.95,19.36-56.27a.6.6,0,0,0,.05-.83.61.61,0,0,0-.84,0c-8.34,7.46-20.19,33.44-19.75,57.17A.59.59,0,0,0,426.5,304.86Z" style="fill:#fff"></path><path d="M430.64,277.32a.52.52,0,0,0,.17,0,78.78,78.78,0,0,1,17-2.34.6.6,0,0,0,.58-.6.57.57,0,0,0-.6-.58,80.36,80.36,0,0,0-17.33,2.39.58.58,0,0,0,.15,1.15Z" style="fill:#fff"></path></g><g id="freepik--plants--inject-3"><path d="M65.12,349.56s.3-17.57-6.56-32.13S41,292.93,30,290.61s-21.18,6.68-10.27,15.2,31,18.38,37.22,45.74Z" style="fill:#B0A5F1"></path><path d="M65.12,349.56s.3-17.57-6.56-32.13S41,292.93,30,290.61s-21.18,6.68-10.27,15.2,31,18.38,37.22,45.74Z" style="opacity:0.15"></path><path d="M62.47,344.64a.3.3,0,0,0,.13,0,.59.59,0,0,0,.42-.72c-7.91-30.22-28.53-45.1-38.33-48.75a.59.59,0,0,0-.41,1.11c9.6,3.58,29.81,18.19,37.59,47.94A.58.58,0,0,0,62.47,344.64Z" style="fill:#fff"></path><path d="M45.47,380.69c1.65,5.32,5.67,8.22,11.13,9.28C62.9,391.19,70,387.6,75,383.92c4.84-3.56,9.41-9,8.76-15.44a15.39,15.39,0,0,0-5.67-10.92c-2.5-2.23-5.26-4.39-6.57-7.48-1.51-3.57-.82-7.87-2.76-11.23a10.81,10.81,0,0,0-6.33-4.65c-5-1.53-9.92-1.18-15-.89-6.08.35-10.71-2.76-16.48-3.86-3.62-.69-7.65-.14-10.48,2.37a6.5,6.5,0,0,0-2.4,5.63c.37,2.32,2.35,4,4.23,5.4s3.93,2.92,4.55,5.18c1.25,4.57-4,9.14-2.54,13.65a7.31,7.31,0,0,0,4.1,4.08,46.79,46.79,0,0,0,4.65,1.68,18.88,18.88,0,0,0,2.3.42c2.27.26,4.67.79,6.37,2.43C44.45,372.89,44.37,377.12,45.47,380.69Z" style="fill:#B0A5F1"></path><path d="M71.47,377.33C61.26,348.73,34.69,335.89,28.14,334a.51.51,0,0,0-.62.34.5.5,0,0,0,.34.62c4.39,1.25,17.88,7.51,29.23,20.25-3.67-.66-13.59-2-21.78,1.31a.5.5,0,0,0,.19,1,.43.43,0,0,0,.19,0c9.19-3.67,21.07-1.3,22.47-1a67.78,67.78,0,0,1,12.37,21.21A.5.5,0,0,0,71,378a.51.51,0,0,0,.17,0A.5.5,0,0,0,71.47,377.33Z" style="fill:#fff"></path></g></g><g id="freepik--Device--inject-3"><g id="freepik--Laptop--inject-3"><path d="M69,379.57c0,3.61,2.71,8.11,6,10l131.56,76a13.35,13.35,0,0,0,12.09,0L450.31,331.82c3.34-1.92,6.05-6.41,6.05-10s-2.71-8.11-6.05-10l-131.55-76a13.35,13.35,0,0,0-12.09,0L75,369.53C71.68,371.46,69,376,69,379.57Z" style="fill:#B0A5F1"></path><path d="M456.36,321.79c0,3.62-2.71,8.1-6,10L218.65,465.58a12.44,12.44,0,0,1-6,1.44V453.93a12.34,12.34,0,0,0,6-1.45L450.32,318.74c2.92-1.69,3.28-4.29,1.09-6.21C454.22,314.71,456.36,318.58,456.36,321.79Z" style="opacity:0.4"></path><path d="M75,376.51l131.56,76a13.35,13.35,0,0,0,12.09,0L450.31,318.73c3.34-1.92,3.34-5.05,0-7l-131.55-76a13.35,13.35,0,0,0-12.09,0L75,369.53C71.68,371.46,71.68,374.59,75,376.51Z" style="opacity:0.30000000000000004"></path><path d="M212.62,453.94V467a12.41,12.41,0,0,1-6.05-1.43L75,389.6c-3.33-1.92-6-6.42-6-10,0-3.39,2.39-7.55,5.43-9.64-2.71,1.94-2.5,4.78.61,6.58l131.56,76A12.42,12.42,0,0,0,212.62,453.94Z" style="opacity:0.5"></path><path d="M63.3,369.75c-2.95-2.08-3-4.86-3-8.71V179.32a13.36,13.36,0,0,1,6-10.46L298,35.11c3.34-1.93,6.42-.53,9.55,1.28s5.12,3.36,5.12,7.22V225.32a13.36,13.36,0,0,1-6,10.47L75,369.53C70,372.94,66.52,372,63.3,369.75Z" style="fill:#B0A5F1"></path><path d="M75,369.54c-5.05,3.4-8.5,2.48-11.71.21-2.95-2.08-3-4.86-3-8.71V179.33a12.44,12.44,0,0,1,1.76-6l8.63,5A12.26,12.26,0,0,0,69,184.33V366.05C69,369.9,71.67,371.46,75,369.54Z" style="opacity:0.5"></path><path d="M312.72,43.6c0-3.84-2.71-5.4-6.05-3.49L75,173.87a12.18,12.18,0,0,0-4.27,4.52l-8.62-5h0a12.36,12.36,0,0,1,4.28-4.52L298,35.11c3.33-1.93,6.41-.53,9.54,1.28S312.72,39.76,312.72,43.6Z" style="opacity:0.30000000000000004"></path><path d="M312.71,43.61a8.89,8.89,0,0,0-.06-.92A6.67,6.67,0,0,1,312.71,43.61Z" style="opacity:0.6000000000000001"></path><path d="M69,184.33V366.05c0,3.85,2.71,5.41,6,3.48L306.67,235.79a13.36,13.36,0,0,0,6-10.47V43.61c0-3.86-2.7-5.42-6-3.49L75,173.87A13.36,13.36,0,0,0,69,184.33Z" style="opacity:0.4"></path><path d="M78.26,180.84,301.61,51.92c2-1.16,3.63-.22,3.63,2.09v165.6a8,8,0,0,1-3.63,6.28L78.26,354.81c-2,1.15-3.62.21-3.62-2.1V187.12A8,8,0,0,1,78.26,180.84Z" style="fill:#263238"></path><path d="M78.26,180.84a8,8,0,0,0-3.62,6.28V351.64l222-128.16a8,8,0,0,0,3.63-6.28V52.68Z" style="fill:#37474f"></path><path d="M91.74,369.89l215-124.14a6.65,6.65,0,0,1,6.05,0l6.25,3.28c1.67,1,1.67,2.53,0,3.49L104,376.65a6.69,6.69,0,0,1-6,0l-6.22-3.27C90.07,372.42,90.07,370.85,91.74,369.89Z" style="fill:#37474f"></path><path d="M108.6,379.92l215-124.15a6.19,6.19,0,0,1,5.52-.3l56,32.32c1.38.79,1.14,2.22-.52,3.18L169.82,415a6.18,6.18,0,0,1-5.53.31l-56.2-32.16C106.7,382.31,106.93,380.88,108.6,379.92Z" style="opacity:0.2"></path><path d="M293.15,307.41l6.73-3.89c.29-.16.33-.41.1-.54L294,299.55a1.07,1.07,0,0,0-1,.05l-6.73,3.89c-.28.16-.33.41-.09.54l5.94,3.43A1,1,0,0,0,293.15,307.41Zm-9.4-13.2L277,298.1c-.28.16-.33.41-.09.54l5.94,3.43a1,1,0,0,0,.94-.05l6.73-3.89c.29-.17.33-.41.1-.54l-5.94-3.43A1.07,1.07,0,0,0,283.75,294.21ZM262,306.77l-11.39,6.58c-.29.16-.33.41-.09.54l5.93,3.43a1.07,1.07,0,0,0,.95-.06l11.39-6.57c.29-.17.33-.41.09-.55L263,306.71A1.07,1.07,0,0,0,262,306.77Zm11.91-6.88-6.73,3.89c-.28.16-.33.41-.09.54l5.94,3.43a1,1,0,0,0,.94-.05l6.73-3.89c.29-.17.33-.41.1-.54l-5.94-3.43A1.07,1.07,0,0,0,273.91,299.89ZM247.5,315.14,240.77,319c-.29.16-.33.41-.09.54l5.94,3.43a1,1,0,0,0,.94-.05l6.73-3.89c.29-.17.33-.41.09-.54l-5.94-3.43A1,1,0,0,0,247.5,315.14Zm-9.84,5.68-6.73,3.89c-.29.16-.33.41-.09.54l5.94,3.43a1,1,0,0,0,.94-.05l6.73-3.89c.29-.17.33-.41.09-.54l-5.94-3.43A1,1,0,0,0,237.66,320.82Zm25,15,6.73-3.88c.29-.17.33-.41.1-.55L263.5,328a1,1,0,0,0-.94.06l-6.74,3.88c-.28.17-.32.41-.09.55l5.94,3.43A1.05,1.05,0,0,0,262.61,335.82Zm-9.84,5.68,6.73-3.88c.29-.17.33-.41.1-.55l-5.94-3.42a1,1,0,0,0-.94.05L246,337.59c-.28.16-.32.4-.09.54l5.94,3.43A1.05,1.05,0,0,0,252.77,341.5Zm-9.84,5.69,6.73-3.89c.29-.17.33-.41.1-.54l-5.94-3.43a1,1,0,0,0-.94.05l-6.74,3.89c-.28.16-.32.41-.09.54l5.94,3.43A1,1,0,0,0,242.93,347.19Zm-9.84,5.68,6.73-3.89c.29-.17.33-.41.1-.54L234,345a1,1,0,0,0-.94.05L226.3,349c-.28.16-.32.41-.09.54l5.94,3.43A1,1,0,0,0,233.09,352.87Zm50.22-39.78L290,309.2c.29-.16.33-.41.1-.54l-5.94-3.43a1.07,1.07,0,0,0-.95,0l-6.73,3.89c-.28.17-.33.41-.09.54l5.94,3.43A1,1,0,0,0,283.31,313.09Zm-10.86,17.05,15-8.67c.29-.16.33-.41.09-.54l-15.27-8.82a1.07,1.07,0,0,0-1,.05l-7.76,4.49c-.29.16-.33.4-.1.54l8.49,4.9c.24.14.19.38-.09.55l-6.22,3.58c-.28.17-.32.41-.09.55l5.94,3.43A1.05,1.05,0,0,0,272.45,330.14Zm-44.63-3.64-6.73,3.89c-.29.16-.33.41-.09.54l5.94,3.43a1,1,0,0,0,.94-.05l6.73-3.89c.29-.16.33-.41.09-.54l-5.93-3.43A1.07,1.07,0,0,0,227.82,326.5ZM218,332.18l-6.73,3.89c-.29.17-.33.41-.09.54L217.1,340A1,1,0,0,0,218,340l6.73-3.89c.29-.16.33-.41.09-.54l-5.94-3.43A1,1,0,0,0,218,332.18Zm-54.71,60.51a1,1,0,0,0,.94-.06l6.74-3.88c.28-.17.32-.41.09-.55l-5.94-3.43a1.05,1.05,0,0,0-.94.06l-6.73,3.89c-.29.16-.33.4-.1.54Zm-24-15.06-6.73,3.89c-.28.16-.33.41-.09.54l5.94,3.43a1,1,0,0,0,.94-.05l6.73-3.89c.29-.16.33-.41.09-.54l-5.93-3.43A1.07,1.07,0,0,0,139.26,377.63Zm12.08,11.16a1,1,0,0,0,.94-.05l6.74-3.89c.28-.17.32-.41.09-.54l-5.94-3.43a1,1,0,0,0-.94.05l-6.73,3.89c-.29.16-.33.41-.1.54ZM178.73,395l6.73-3.89c.29-.17.33-.41.1-.54l-5.94-3.43a1,1,0,0,0-.94.05l-6.74,3.89c-.28.16-.32.41-.09.54l5.94,3.43A1,1,0,0,0,178.73,395ZM168,400.77a1,1,0,0,0,.94,0l6.73-3.89c.29-.16.33-.41.1-.54l-5.94-3.43a1,1,0,0,0-.94.05l-6.74,3.89c-.28.16-.32.41-.09.54ZM149.1,372l-6.73,3.89c-.28.16-.33.41-.09.54l5.94,3.43a1,1,0,0,0,.94-.05l6.73-3.89c.29-.17.33-.41.09-.54l-5.93-3.43A1.07,1.07,0,0,0,149.1,372Zm49.2-28.4-6.73,3.88c-.29.17-.33.41-.09.55l5.94,3.43a1.05,1.05,0,0,0,.94-.06l6.73-3.89c.29-.16.33-.4.09-.54l-5.93-3.43A1.07,1.07,0,0,0,198.3,343.55Zm-39.36,22.72-6.73,3.89c-.28.16-.33.41-.09.54l5.94,3.43a1.08,1.08,0,0,0,.94-.05l6.73-3.89c.29-.17.33-.41.09-.55l-5.93-3.42A1,1,0,0,0,158.94,366.27Zm49.2-28.41-6.73,3.89c-.29.17-.33.41-.09.55l5.94,3.42a1,1,0,0,0,.94-.05l6.73-3.89c.29-.16.33-.41.09-.54l-5.93-3.43A1.1,1.1,0,0,0,208.14,337.86Zm-19.68,11.37-6.73,3.88c-.29.17-.33.41-.09.55l5.94,3.43a1.05,1.05,0,0,0,.94-.06l6.73-3.88c.29-.17.33-.41.09-.55l-5.93-3.43A1.07,1.07,0,0,0,188.46,349.23Zm-9.84,5.68-6.73,3.89c-.29.16-.33.4-.09.54l5.94,3.43a1.05,1.05,0,0,0,.94-.06l6.73-3.88c.29-.17.33-.41.09-.55l-5.93-3.43A1.07,1.07,0,0,0,178.62,354.91Zm-9.84,5.68-6.73,3.89c-.28.16-.33.4-.09.54l5.94,3.43a1.05,1.05,0,0,0,.94-.06l6.73-3.88c.29-.17.33-.41.09-.55l-5.93-3.43A1.07,1.07,0,0,0,168.78,360.59Zm44.63,3.64,6.73-3.89c.29-.16.33-.41.1-.54l-5.94-3.43a1,1,0,0,0-.94.05l-6.74,3.89c-.28.17-.32.41-.09.54l5.94,3.43A1,1,0,0,0,213.41,364.23Zm92.1-82.58-6.74,3.89c-.28.16-.32.41-.09.54l5.94,3.43a1,1,0,0,0,.94-.05l6.73-3.89c.29-.16.33-.41.1-.54l-5.94-3.43A1,1,0,0,0,305.51,281.65Zm-11.92,6.88-6.73,3.89c-.28.16-.33.4-.09.54l5.94,3.43a1.08,1.08,0,0,0,.94-.05l6.73-3.89c.29-.17.33-.41.1-.55l-5.94-3.42A1,1,0,0,0,293.59,288.53ZM315.35,276l-6.74,3.89c-.28.16-.32.41-.09.54l5.94,3.43a1,1,0,0,0,.94-.05l6.73-3.89c.29-.17.33-.41.1-.54l-5.94-3.43A1,1,0,0,0,315.35,276Zm-54.83,50.28,6.73-3.89c.29-.17.33-.41.1-.55l-5.94-3.42a1,1,0,0,0-.94.05l-6.73,3.89c-.29.16-.33.41-.1.54l5.94,3.43A1.08,1.08,0,0,0,260.52,326.25Zm65.61-56a1,1,0,0,0-.94.05l-6.74,3.89c-.28.16-.32.41-.09.54l5.94,3.43a1,1,0,0,0,.94,0l6.73-3.89c.29-.17.33-.41.1-.55ZM223.25,358.55l6.73-3.89c.29-.16.33-.41.1-.54l-5.94-3.43a1,1,0,0,0-.94.05l-6.74,3.89c-.28.16-.32.41-.09.54l5.94,3.43A1,1,0,0,0,223.25,358.55Zm120.67-69.67,6.73-3.89c.29-.16.33-.41.1-.54L344.81,281a1.07,1.07,0,0,0-.95.06L337.13,285c-.28.17-.33.41-.09.55l5.94,3.42A1,1,0,0,0,343.92,288.88Zm-19.18.29,6.73-3.89c.29-.16.33-.41.1-.54l-5.94-3.43a1,1,0,0,0-.94.05L318,285.25c-.28.17-.33.41-.09.54l5.94,3.43A1,1,0,0,0,324.74,289.17Zm10.73-13.54a1,1,0,0,0-.94.05l-6.74,3.89c-.28.16-.33.41-.09.54l5.94,3.43a1,1,0,0,0,.94-.05l6.73-3.89c.29-.16.33-.41.1-.54Zm2.07-1.2,15.28,8.82a1,1,0,0,0,.94-.05l6.73-3.89c.29-.16.33-.41.1-.54L345.31,270a1.07,1.07,0,0,0-.95.05l-6.73,3.89C337.35,274.05,337.3,274.3,337.54,274.43Zm-22.69,12.62-6.74,3.88c-.28.17-.33.41-.09.55L314,294.9a1,1,0,0,0,.94,0l6.73-3.89c.29-.16.33-.41.1-.54L315.79,287A1,1,0,0,0,314.85,287.05ZM240.79,329.8l-6.73,3.89c-.29.16-.33.41-.1.54l5.94,3.43a1,1,0,0,0,.94-.05l6.73-3.89c.29-.16.33-.41.1-.54l-5.94-3.43A1,1,0,0,0,240.79,329.8Zm92.35-35.18a1.05,1.05,0,0,0,.94-.06l6.73-3.89c.29-.16.33-.4.1-.54L335,286.7a1,1,0,0,0-.94.06l-6.74,3.88c-.28.17-.33.41-.09.55Zm-82.51,29.5L243.9,328c-.29.16-.33.41-.1.54l5.94,3.43a1,1,0,0,0,.94-.05l6.73-3.89c.29-.17.33-.41.1-.54l-5.94-3.43A1,1,0,0,0,250.63,324.12ZM173.11,387a1,1,0,0,0,.94-.06l6.74-3.88c.28-.17.32-.41.09-.55l-5.94-3.43a1.05,1.05,0,0,0-.94.06L167.27,383c-.29.17-.33.41-.1.55Zm-11-11.76-6.73,3.89c-.29.16-.33.41-.1.54l5.94,3.43a1,1,0,0,0,.94-.05l6.74-3.89c.28-.17.32-.41.09-.55L163,375.2A1,1,0,0,0,162.07,375.25Zm21.82,6,6.73-3.88c.29-.17.33-.41.1-.55l-5.94-3.43a1.05,1.05,0,0,0-.94.06l-6.73,3.88c-.29.17-.33.41-.1.55l5.94,3.43A1.05,1.05,0,0,0,183.89,381.27Zm9.84-5.68,6.73-3.89c.29-.16.33-.4.1-.54l-5.94-3.43a1.05,1.05,0,0,0-.94.06L187,371.67c-.29.17-.33.41-.1.55l5.94,3.43A1.05,1.05,0,0,0,193.73,375.59Zm9.84-5.68L210.3,366c.29-.16.33-.41.1-.54l-5.94-3.43a1.08,1.08,0,0,0-.94.05L196.79,366c-.29.17-.33.41-.1.55l5.94,3.42A1,1,0,0,0,203.57,369.91Zm-31.66-.34-6.73,3.89c-.29.16-.33.4-.1.54l5.94,3.43a1,1,0,0,0,.94-.06l6.74-3.88c.28-.17.32-.41.09-.55l-5.94-3.42A1,1,0,0,0,171.91,369.57Zm9.84-5.68L175,367.77c-.29.17-.33.41-.1.55l5.94,3.43a1,1,0,0,0,.94-.06l6.74-3.88c.28-.17.32-.41.09-.55l-5.94-3.43A1.05,1.05,0,0,0,181.75,363.89Zm39.36-22.73-6.73,3.89c-.29.17-.33.41-.1.55l5.94,3.42a1,1,0,0,0,.94,0l6.73-3.89c.29-.16.33-.41.1-.54l-5.94-3.43A1,1,0,0,0,221.11,341.16Zm-9.84,5.68-6.73,3.89c-.29.17-.33.41-.1.55l5.94,3.42a1,1,0,0,0,.94-.05l6.74-3.89c.28-.16.32-.41.09-.54l-5.94-3.43A1.08,1.08,0,0,0,211.27,346.84ZM231,335.48l-6.73,3.89c-.29.17-.33.41-.1.54l5.94,3.43a1,1,0,0,0,.94,0l6.74-3.89c.28-.16.32-.41.09-.54l-5.94-3.43A1,1,0,0,0,231,335.48Zm-39.36,22.73-6.73,3.88c-.29.17-.33.41-.1.55l5.94,3.43a1,1,0,0,0,.94-.06l6.74-3.88c.28-.17.32-.41.09-.55l-5.94-3.43A1.05,1.05,0,0,0,191.59,358.21Zm9.84-5.68-6.73,3.88c-.29.17-.33.41-.1.55l5.94,3.43a1.05,1.05,0,0,0,.94-.06l6.74-3.89c.28-.16.32-.4.09-.54l-5.94-3.43A1.05,1.05,0,0,0,201.43,352.53Zm-12.86,36.83,6.73-3.89c.29-.17.33-.41.1-.55l-5.94-3.42a1,1,0,0,0-.94.05l-6.74,3.89c-.28.16-.32.41-.09.54l5.94,3.43A1.08,1.08,0,0,0,188.57,389.36Zm-52.26-2.67-5.94-3.43a1.07,1.07,0,0,0-1,.05l-6.73,3.89c-.28.17-.33.41-.09.54l5.94,3.43a1,1,0,0,0,.94-.05l6.73-3.89C136.5,387.07,136.54,386.82,136.31,386.69Zm13,3.3-5.94-3.43a1,1,0,0,0-.94.05l-10.36,6c-.28.17-.33.41-.09.55l5.94,3.42a1,1,0,0,0,.94-.05l10.36-6C149.46,390.37,149.5,390.12,149.27,390Zm-21.71-10.14-5.94-3.43a1,1,0,0,0-.94.05l-8.29,4.79c-.28.16-.32.4-.09.54l5.94,3.43a1.05,1.05,0,0,0,.94-.06l8.29-4.78C127.75,380.23,127.8,380,127.56,379.85Zm6.36-3.67a1.05,1.05,0,0,0,.94-.06l6.73-3.88c.29-.17.33-.41.09-.55l-5.94-3.43a1.05,1.05,0,0,0-.94.06l-6.73,3.89c-.29.16-.33.4-.09.54Zm27.28,17.7-5.94-3.42a1,1,0,0,0-.94.05L141.37,398c-.28.17-.33.41-.09.55l5.94,3.43a1.05,1.05,0,0,0,.94-.06l13-7.47C161.39,394.26,161.43,394,161.2,393.88Zm4.68,8.09-5.94-3.43a1,1,0,0,0-.94,0l-8.29,4.79c-.29.16-.33.41-.09.54l5.94,3.43a1,1,0,0,0,.94-.05l8.28-4.79C166.07,402.35,166.11,402.1,165.88,402Zm41.2-68a1.08,1.08,0,0,0,.94-.05l6.73-3.89c.29-.17.33-.41.09-.55L208.9,326a1,1,0,0,0-.94.05L201.23,330c-.29.16-.33.41-.09.54ZM187.4,345.3a1,1,0,0,0,.94-.05l6.73-3.89c.29-.16.33-.41.09-.54l-5.94-3.43a1,1,0,0,0-.94.05l-6.73,3.89c-.29.16-.33.41-.09.54Zm-43.65,25.2a1.07,1.07,0,0,0,.95-.06l6.73-3.88c.28-.17.33-.41.09-.55l-5.94-3.43a1.05,1.05,0,0,0-.94.06l-6.73,3.88c-.29.17-.33.41-.09.55Zm53.49-30.88a1,1,0,0,0,.94-.05l6.73-3.89c.29-.17.33-.41.09-.54l-5.94-3.43a1,1,0,0,0-.94.05l-6.73,3.89c-.29.16-.33.41-.09.54ZM177.56,351a1,1,0,0,0,.94-.05l6.73-3.89c.29-.16.33-.41.09-.54l-5.93-3.43a1.07,1.07,0,0,0-.95.05L171.71,347c-.29.16-.33.41-.09.54Zm-6.21,51.76a1,1,0,0,0-.94.05l-10.36,6c-.29.16-.33.41-.09.54l5.94,3.43a1,1,0,0,0,.94-.05l10.36-6c.28-.17.32-.41.09-.55Zm-7.92-43.6a1.07,1.07,0,0,0,.95-.06l6.73-3.89c.29-.16.33-.4.09-.54l-5.94-3.43a1.05,1.05,0,0,0-.94.06l-6.73,3.88c-.29.17-.33.41-.09.55Zm-9.84,5.68a1.07,1.07,0,0,0,.95-.06l6.73-3.89c.28-.16.33-.4.09-.54l-5.94-3.43a1.05,1.05,0,0,0-.94.06l-6.73,3.88c-.29.17-.33.41-.09.55Zm200.06-67.33a1.07,1.07,0,0,0-.95.05l-16.57,9.57c-.28.16-.33.41-.09.54l5.94,3.43a1,1,0,0,0,.94-.05l16.57-9.57c.29-.17.33-.41.1-.54ZM331.9,310a1.07,1.07,0,0,0-.95.06L324.22,314c-.29.16-.33.4-.09.54l5.94,3.43a1.05,1.05,0,0,0,.94-.06l6.73-3.88c.29-.17.33-.41.09-.55ZM198.41,383.67l6.73-3.88c.29-.17.33-.41.1-.55l-5.94-3.43a1,1,0,0,0-.94.06l-6.74,3.89c-.28.16-.32.4-.09.54l5.94,3.43A1.05,1.05,0,0,0,198.41,383.67Zm113.81-62.26a1.07,1.07,0,0,0-1,0l-6.73,3.89c-.28.16-.33.41-.09.54l5.94,3.43a1,1,0,0,0,.94-.05l6.73-3.89c.29-.17.33-.41.09-.54Zm51.27-29.6a1,1,0,0,0-.95.05l-6.73,3.89c-.28.16-.33.41-.09.54l5.94,3.43a1.08,1.08,0,0,0,.94-.05l6.73-3.89c.29-.17.33-.41.1-.55Zm15.78-2.26L364,280.73a1.07,1.07,0,0,0-.95.06l-6.73,3.88c-.28.17-.33.41-.09.55L371.5,294a1.05,1.05,0,0,0,.94-.06l6.73-3.88C379.46,289.93,379.5,289.69,379.27,289.55ZM275.45,342.64a1,1,0,0,0-.95.05l-8.28,4.78c-.29.17-.33.41-.1.55l5.94,3.43a1,1,0,0,0,.94-.06l8.29-4.78c.29-.17.33-.41.09-.55Zm24.85-14.36a1.05,1.05,0,0,0-.94.06l-10.36,6c-.28.16-.32.41-.09.54l5.94,3.43a1,1,0,0,0,.94-.05l10.36-6c.29-.17.33-.41.09-.55Zm-47.64,27.51a1,1,0,0,0-.94.06l-55.42,32c-.28.16-.33.41-.09.54l5.94,3.43a1,1,0,0,0,.94-.05l55.41-32c.29-.16.33-.4.1-.54Zm-58.52,33.79a1,1,0,0,0-.94.05l-8.29,4.79c-.29.16-.33.41-.09.54l5.93,3.43a1.1,1.1,0,0,0,.95-.05l8.28-4.79c.29-.16.33-.41.1-.54Zm69.91-40.37a1.05,1.05,0,0,0-.94.06l-8.29,4.78c-.28.17-.32.41-.09.55l5.94,3.42a1,1,0,0,0,.94,0l8.29-4.78c.28-.17.33-.41.09-.55Zm-81.31,47a1,1,0,0,0-.94,0L173.52,401c-.29.16-.33.4-.1.54l5.94,3.43a1,1,0,0,0,.94-.06l8.29-4.78c.29-.17.33-.41.09-.54Zm104.1-60.1a1,1,0,0,0-.94.05l-8.29,4.79c-.28.16-.33.4-.09.54l5.94,3.43a1.05,1.05,0,0,0,.94-.06l8.28-4.78c.29-.16.33-.41.1-.54Zm35.22-20.33a1,1,0,0,0-.95,0l-6.73,3.89c-.29.16-.33.4-.09.54l5.94,3.43a1.08,1.08,0,0,0,.94-.05l6.73-3.89c.29-.17.33-.41.09-.55ZM343.42,300l6.73-3.88c.29-.17.33-.41.1-.55l-5.94-3.43a1.07,1.07,0,0,0-.95.06L336.63,296c-.28.16-.33.4-.09.54l5.94,3.43A1.05,1.05,0,0,0,343.42,300ZM303,301.73l6.73-3.89c.29-.16.33-.41.1-.54l-5.94-3.43a1.07,1.07,0,0,0-.95.05l-6.73,3.89c-.28.16-.33.41-.09.54l5.94,3.43A1,1,0,0,0,303,301.73Zm-25.86,36.5,19.68-11.37c.29-.16.33-.4.09-.54L291,322.89a1.05,1.05,0,0,0-.94.06l-19.68,11.36c-.28.16-.33.41-.09.54l5.94,3.43A1,1,0,0,0,277.13,338.23Zm55.51-32.54a1.05,1.05,0,0,0,.94-.06l6.73-3.88c.29-.17.33-.41.1-.55l-5.94-3.43a1,1,0,0,0-.94.06l-6.74,3.89c-.28.16-.33.41-.09.54Zm-8.4-5.45,6.73-3.88c.29-.17.33-.41.1-.55l-5.94-3.43a1,1,0,0,0-.94.06l-6.74,3.88c-.28.17-.33.41-.09.55l5.94,3.43A1.05,1.05,0,0,0,324.24,300.24Zm-56.95,43.67L274,340c.29-.17.33-.41.1-.54l-5.94-3.43a1,1,0,0,0-.94.05L260.5,340c-.28.16-.32.41-.09.54l5.94,3.43A1,1,0,0,0,267.29,343.91Zm43.6-25.66a1.05,1.05,0,0,0,.94-.06l6.73-3.88c.29-.17.33-.41.09-.55l-5.93-3.43a1.07,1.07,0,0,0-1,.06L305,314.27c-.28.17-.33.41-.09.55Zm-92.8,54.06,6.73-3.88c.29-.17.33-.41.1-.55L219,364.45a1,1,0,0,0-.94.06l-6.74,3.88c-.28.17-.32.41-.09.55l5.94,3.43A1.05,1.05,0,0,0,218.09,372.31Zm9.84-5.68,6.73-3.89c.29-.16.33-.4.1-.54l-5.94-3.43a1,1,0,0,0-.94.06l-6.74,3.88c-.28.17-.32.41-.09.55l5.94,3.43A1.05,1.05,0,0,0,227.93,366.63ZM208.25,378l6.73-3.88c.29-.17.33-.41.1-.55l-5.94-3.43a1,1,0,0,0-.94.06l-6.74,3.88c-.28.17-.32.41-.09.55l5.94,3.43A1.05,1.05,0,0,0,208.25,378Zm39.36-22.72,6.73-3.89c.29-.16.33-.41.1-.54l-5.94-3.43a1,1,0,0,0-.94,0l-6.74,3.89c-.28.17-.32.41-.09.54l5.94,3.43A1,1,0,0,0,247.61,355.27ZM237.77,361l6.73-3.89c.29-.16.33-.41.1-.54l-5.94-3.43a1.08,1.08,0,0,0-.94.05L231,357c-.28.17-.32.41-.09.55l5.94,3.42A1,1,0,0,0,237.77,361Zm19.68-11.36,6.73-3.89c.29-.16.33-.41.1-.54l-5.94-3.43a1,1,0,0,0-.94,0l-6.74,3.89c-.28.16-.32.41-.09.54l5.94,3.43A1,1,0,0,0,257.45,349.59ZM311.82,271a1,1,0,0,0,.94-.06L319.5,267c.28-.17.32-.41.09-.55l-1.58-.91a1,1,0,0,0-.94.05l-6.74,3.89c-.28.17-.32.41-.09.54Zm-49.09,30.86a1.05,1.05,0,0,0,.94-.06l6.74-3.88c.28-.17.32-.41.09-.55l-5.94-3.43a1.05,1.05,0,0,0-.94.06l-6.73,3.88c-.29.17-.33.41-.1.55Zm19.68-11.37a1,1,0,0,0,.94-.05l6.73-3.89c.29-.16.33-.41.1-.54l-5.94-3.43a1,1,0,0,0-.94.05l-6.74,3.89c-.28.17-.32.41-.09.55Zm-31.69,18.3a1,1,0,0,0,.94-.05l6.73-3.89c.29-.16.33-.41.09-.54l-5.93-3.43a1.07,1.07,0,0,0-1,.05l-6.73,3.89c-.29.17-.33.41-.09.54Zm21.85-12.61a1.05,1.05,0,0,0,.94-.06l6.74-3.89c.28-.16.32-.4.09-.54l-5.94-3.43a1.05,1.05,0,0,0-.94.06l-6.73,3.88c-.29.17-.33.41-.1.55Zm-41.53,24a1.05,1.05,0,0,0,.94-.06l6.73-3.89c.29-.16.33-.4.09-.54l-5.93-3.43a1.07,1.07,0,0,0-1,.06l-6.73,3.88c-.29.17-.33.41-.09.55Zm9.84-5.69a1,1,0,0,0,.94-.05l6.73-3.89c.29-.16.33-.41.09-.54l-5.93-3.43a1.1,1.1,0,0,0-1,.05L235,310.45c-.29.17-.33.41-.09.55Zm51.26-32.11a1.08,1.08,0,0,0,.94-.05l6.74-3.89c.28-.17.33-.41.09-.55l-1.58-.91a1.05,1.05,0,0,0-.94.06l-6.73,3.88c-.29.17-.33.41-.1.55Zm29.52-17a1,1,0,0,0,.94-.06l6.74-3.89c.28-.16.32-.4.09-.54l-1.58-.91a1,1,0,0,0-.94.05l-6.74,3.89c-.28.16-.32.41-.09.54Zm12.48,7.2a1.05,1.05,0,0,0,.94-.06l6.73-3.88c.29-.17.33-.41.1-.55L336,264.56a1,1,0,0,0-.94.05l-6.74,3.89c-.28.16-.33.41-.09.54Zm19.12,21.8,6.73-3.88c.29-.17.33-.41.1-.55l-5.94-3.43a1.07,1.07,0,0,0-.95.06l-6.73,3.88c-.28.17-.33.41-.09.55l5.94,3.43A1.05,1.05,0,0,0,353.26,294.27ZM302,276.63a1,1,0,0,0,.94-.06l6.74-3.88c.28-.17.33-.41.09-.55l-1.58-.91a1.08,1.08,0,0,0-.94,0l-6.73,3.89c-.29.17-.33.41-.1.55ZM221.2,325.79a1.05,1.05,0,0,0,.94-.06l6.73-3.88c.29-.17.33-.41.09-.55L223,317.87a1.07,1.07,0,0,0-.95.06l-6.73,3.88c-.28.17-.33.41-.09.55Z" style="fill:#37474f"></path><polygon points="251.32 376.6 252.7 377.4 289.37 398.56 354.57 360.91 355.93 360.14 317.89 338.18 251.32 376.6" style="opacity:0.4"></polygon><polygon points="353.97 361.26 317.89 340.45 253.31 377.75 289.37 398.56 353.97 361.26" style="fill:#B0A5F1"></polygon><polygon points="353.97 361.26 317.89 340.45 253.31 377.75 289.37 398.56 353.97 361.26" style="opacity:0.45"></polygon></g></g><g id="freepik--Character--inject-3"><g id="freepik--character--inject-3"><g id="freepik--Window--inject-3"><path d="M102.46,367.13a4.06,4.06,0,0,1-1.83.56,4.65,4.65,0,0,1-2.68-.47,5,5,0,0,1-2.18-4V227.13l4.38,2.53V365.78c0,1.06.53,1.67,1.29,1.67A2.2,2.2,0,0,0,102.46,367.13Z" style="fill:#f0f0f0"></path><path d="M330,233a5.14,5.14,0,0,1-2.33,4L102.46,367.13c-1.28.74-2.32.14-2.32-1.35V214.5l6.41-3.7c1.29-.74,3.37-12,4.67-12.79l55.59-32.1c1.29-.74,4.33,7.6,5.61,6.86L330,81.73V233Z" style="fill:#fafafa"></path><path d="M329,83.6V233a4.07,4.07,0,0,1-1.79,3.11L101.92,366.2a.94.94,0,0,1-.49.17c-.21,0-.21-.56-.21-.59V215.12l5.87-3.39c.93-.54,1.52-2.35,2.82-7a34.61,34.61,0,0,1,1.93-5.82l55.09-31.82a23.7,23.7,0,0,1,1.76,2.8c1.5,2.64,2.34,4,3.55,4a1.42,1.42,0,0,0,.72-.2L329,83.6m-161.6,83.25h0m-55.48,32h0M330,81.73l-157.61,91a.37.37,0,0,1-.18,0c-1.3,0-3.94-6.95-5.25-6.95a.39.39,0,0,0-.18,0L111.21,198c-1.29.75-3.37,12.05-4.66,12.79l-6.41,3.7V365.78c0,1.06.53,1.67,1.29,1.67a2,2,0,0,0,1-.32L327.7,237.05a5.14,5.14,0,0,0,2.33-4V81.73Z" style="fill:#e0e0e0"></path><path d="M98,221.67a5,5,0,0,1-2.19-3.95V199.53a5.18,5.18,0,0,1,2.33-4L323.33,65.41a4.38,4.38,0,0,1,6.7,3.87V87.47a5.14,5.14,0,0,1-2.33,4L102.46,221.59A5,5,0,0,1,98,221.67Z" style="fill:#B0A5F1"></path><path d="M330,68.9c-.17-1.2-1.15-1.65-2.31-1L102.46,198a5,5,0,0,0-1.64,1.75l-4.37-2.53a4.92,4.92,0,0,1,1.64-1.74L323.33,65.41A4.36,4.36,0,0,1,330,68.9Z" style="fill:#fff;opacity:0.5"></path><path d="M100.82,199.76a4.73,4.73,0,0,0-.68,2.29v27.61l-4.38-2.53v-27.6a2.53,2.53,0,0,1,0-.28,4.71,4.71,0,0,1,.09-.58,5.27,5.27,0,0,1,.59-1.44Z" style="opacity:0.15"></path><path d="M330,69.28V81.73l-157.61,91c-1.28.74-2.33.14-2.33-1.34v-4.72c0-1.48-1-2.09-2.33-1.34L111.22,198a5.14,5.14,0,0,0-2.34,4v4.71a5.14,5.14,0,0,1-2.33,4l-6.41,3.7V202.05a5.17,5.17,0,0,1,2.32-4L327.7,67.93C329,67.19,330,67.79,330,69.28Z" style="fill:#B0A5F1"></path><path d="M319.1,77.09c1.62-.94,2.93-.18,2.93,1.69a6.47,6.47,0,0,1-2.93,5.08c-1.62.94-2.93.18-2.93-1.69A6.47,6.47,0,0,1,319.1,77.09Z" style="fill:#fff"></path><path d="M308.54,83.18c1.62-.94,2.94-.18,2.94,1.69A6.5,6.5,0,0,1,308.54,90c-1.62.93-2.93.18-2.93-1.69A6.47,6.47,0,0,1,308.54,83.18Z" style="fill:#fff"></path><path d="M298,89.26c1.61-.93,2.93-.17,2.93,1.7A6.51,6.51,0,0,1,298,96c-1.62.93-2.94.17-2.94-1.7A6.5,6.5,0,0,1,298,89.26Z" style="fill:#fff"></path><path d="M330,81.73V96.89L100.14,229.66V214.5l4.79-2.77c1.28-.74,1.71-1.87,2.32-4l1.63-5.64c.51-2,1-3.29,2.34-4l55.59-32.1c1.29-.74,2.3-.82,3.28.8l2,3.62c.73,1.26,1.09,2,2.37,1.26Z" style="fill:#e6e6e6"></path><polygon points="100.14 214.5 100.14 229.66 95.76 227.13 95.76 211.99 100.14 214.5" style="fill:#e0e0e0"></polygon><path d="M110.83,215.6l-3.66,2.11,1.4-2.68a.67.67,0,0,0,0-.66c-.1-.13-.29,0-.41.2l-2,3.81v0l-.06.14s0,0,0,.05a.63.63,0,0,0,0,.19.43.43,0,0,0,0,.17s0,0,0,0l.06.08h0l2,1.52a.15.15,0,0,0,.19,0,.55.55,0,0,0,.22-.28c.11-.25.1-.53,0-.62l-1.4-1.08,3.66-2.11a.77.77,0,0,0,.29-.62C111.12,215.63,111,215.5,110.83,215.6Z" style="fill:#455a64;opacity:0.5"></path><path d="M113.88,213.83l3.66-2.11-1.39-1.07a.59.59,0,0,1,0-.63c.11-.25.29-.37.42-.28l2,1.53h0s0,0,0,.07,0,0,0,0a.79.79,0,0,1,0,.17,1.36,1.36,0,0,1,0,.2l0,0c0,.05,0,.1,0,.14v0l-2,3.82a.62.62,0,0,1-.2.22.16.16,0,0,1-.22,0,.66.66,0,0,1,0-.65l1.39-2.68-3.66,2.11c-.16.09-.29,0-.29-.29A.78.78,0,0,1,113.88,213.83Z" style="fill:#455a64;opacity:0.5"></path><path d="M125.89,203.3c0-.22-.22-.2-.32,0l-.5,1.23c-.85-.09-1.89.74-2.59,2.22-.9,1.92-.9,4.19,0,5.06a1.3,1.3,0,0,0,1.65.1,4.54,4.54,0,0,0,1.64-2,.6.6,0,0,0,0-.64c-.11-.11-.3,0-.42.24-.67,1.43-1.77,2.07-2.45,1.42s-.68-2.35,0-3.78c.48-1,1.17-1.62,1.78-1.66l-.38.93c-.1.24,0,.46.15.36l1.49-1a.45.45,0,0,0,.16-.4Z" style="fill:#455a64;opacity:0.5"></path><path d="M165.21,172.83l1.33-2.82a.85.85,0,0,0,0-.88c-.16-.15-.41,0-.57.33l-1.33,2.82L163.3,171c-.15-.15-.41,0-.57.33a.85.85,0,0,0,0,.88l1.34,1.28-1.34,2.82a.85.85,0,0,0,0,.88.22.22,0,0,0,.29,0,.8.8,0,0,0,.28-.35l1.34-2.82,1.33,1.28a.22.22,0,0,0,.29,0,.8.8,0,0,0,.28-.35.85.85,0,0,0,0-.88Z" style="fill:#455a64;opacity:0.5"></path><path d="M130.74,206.77v-4.72a5.17,5.17,0,0,1,2.33-4L314.58,93.23c1.29-.74,2.33-.14,2.33,1.35v4.71a5.14,5.14,0,0,1-2.33,4L133.07,208.11C131.78,208.86,130.74,208.25,130.74,206.77Z" style="fill:#fafafa"></path><path d="M311.41,103.69a.45.45,0,0,1-.2,0,.61.61,0,0,1-.35-.7l.22-1.92-.89-.65a.6.6,0,0,1-.25-.51,1.05,1.05,0,0,1,.38-.82l1.37-1a.32.32,0,0,0,.06-.11l.61-2a.85.85,0,0,1,.69-.65.55.55,0,0,1,.54.32h0l.51,1.1,1.16-.45a.55.55,0,0,1,.62.14.85.85,0,0,1,0,1l-1,1.86s0,.09,0,.11l.23,1.68a1,1,0,0,1-.29.84.66.66,0,0,1-.54.21l-1.12-.14L312,103.39A.69.69,0,0,1,311.41,103.69Zm-.66-3.89.9.65a.67.67,0,0,1,.24.64l-.15,1.27.81-1a.67.67,0,0,1,.61-.29l1.12.14a.46.46,0,0,0,0-.13l-.23-1.68a.93.93,0,0,1,.12-.6l.86-1.63-.89.34a.55.55,0,0,1-.71-.28l-.4-.86-.55,1.78a1,1,0,0,1-.33.51l-1.37,1.06A.3.3,0,0,0,310.75,99.8Zm2.31,2Zm-1.88-.74Z" style="fill:#e0e0e0"></path><g style="opacity:0.5"><path d="M319.66,92.66a.81.81,0,0,1-.4-1.51l6.56-3.79a.81.81,0,1,1,.8,1.4l-6.55,3.79A.87.87,0,0,1,319.66,92.66Z" style="fill:#455a64"></path><path d="M319.66,96.45a.81.81,0,0,1-.4-1.51l6.56-3.79a.81.81,0,1,1,.8,1.4l-6.55,3.79A.87.87,0,0,1,319.66,96.45Z" style="fill:#455a64"></path><path d="M319.66,100.23a.8.8,0,0,1-.4-1.5l6.56-3.79a.81.81,0,1,1,.8,1.4l-6.55,3.79A.86.86,0,0,1,319.66,100.23Z" style="fill:#455a64"></path></g><g id="freepik--Search--inject-3"><g style="opacity:0.5"><path d="M107.33,233.9a.8.8,0,0,1-.4-1.5l6.55-3.79a.81.81,0,1,1,.81,1.4l-6.56,3.78A.71.71,0,0,1,107.33,233.9Z" style="fill:#455a64"></path><path d="M107.33,237.69a.8.8,0,0,1-.7-.4.82.82,0,0,1,.3-1.11l6.55-3.78a.81.81,0,1,1,.81,1.4l-6.56,3.78A.71.71,0,0,1,107.33,237.69Z" style="fill:#455a64"></path><path d="M107.33,241.48a.81.81,0,0,1-.4-1.51l6.55-3.79a.82.82,0,0,1,1.11.3.8.8,0,0,1-.3,1.1l-6.56,3.79A.8.8,0,0,1,107.33,241.48Z" style="fill:#455a64"></path></g><path d="M165.51,200.51v5.81c0,1.19.84,1.67,1.87,1.08l77.93-45.06V152.21l-77.93,45.06A4.14,4.14,0,0,0,165.51,200.51Z" style="fill:#e6e6e6"></path><path d="M255.13,146.54c1-.6,1.87-.11,1.87,1.08v5.81a4.13,4.13,0,0,1-1.87,3.24l-9.82,5.67V152.21Z" style="fill:#B0A5F1"></path><path d="M254.41,154.51l-1.1-.35a6.12,6.12,0,0,0,.18-1.41,2.6,2.6,0,0,0-1-2.34,1.57,1.57,0,0,0-1.6.08,5.6,5.6,0,0,0-2.19,4.56,2.57,2.57,0,0,0,1,2.34,1.42,1.42,0,0,0,.69.18,1.88,1.88,0,0,0,.91-.26,4.63,4.63,0,0,0,1.77-2.37l1.1.34a.25.25,0,0,0,.12,0,.41.41,0,0,0,.12-.79Zm-3.52,2.1a.75.75,0,0,1-.78.07,1.87,1.87,0,0,1-.6-1.63,4.9,4.9,0,0,1,1.79-3.86,1,1,0,0,1,.49-.15.51.51,0,0,1,.29.08,1.87,1.87,0,0,1,.59,1.63A4.89,4.89,0,0,1,250.89,156.61Z" style="fill:#fafafa"></path><path d="M133.12,217.05l-11.25,6.51a4.09,4.09,0,0,0-1.86,3.22v5.79c0,1.19.83,1.67,1.86,1.08l11.25-6.51a4.12,4.12,0,0,0,1.87-3.23v-5.79C135,216.94,134.15,216.45,133.12,217.05Z" style="fill:#B0A5F1"></path><path d="M314.92,112.05a9.68,9.68,0,0,0-4.39,7.6c0,2.8,2,3.93,4.39,2.53a9.7,9.7,0,0,0,4.38-7.59C319.3,111.79,317.34,110.66,314.92,112.05Z" style="fill:#B0A5F1"></path><path d="M314.4,116.51a.7.7,0,0,1-.38-.1.93.93,0,0,1-.43-.87,2.51,2.51,0,0,1,1.16-2h0a.86.86,0,0,1,1.39.8,2.52,2.52,0,0,1-1.15,2A1.13,1.13,0,0,1,314.4,116.51Z" style="fill:#fff"></path><path d="M316.65,116.81a1.54,1.54,0,0,0-1.55.11l-.63.37a4.29,4.29,0,0,0-2,3.42v.45a2.42,2.42,0,0,0,2.42-.26,7.1,7.1,0,0,0,2.42-2.53v-.11A1.59,1.59,0,0,0,316.65,116.81Z" style="fill:#fff"></path><path d="M299.41,125.62v-1.55c0-1.77-1.08-2.58-2.4-1.81h0a5.71,5.71,0,0,0-2.4,4.58v1.38a5.48,5.48,0,0,1-.81,2.71h0a1.52,1.52,0,0,0-.2.71h0c0,.44.27.65.61.46l5.6-3.24a1.45,1.45,0,0,0,.6-1.15h0a.56.56,0,0,0-.17-.47h0A1.62,1.62,0,0,1,299.41,125.62Z" style="fill:#B0A5F1"></path><path d="M298.16,130.29a2.73,2.73,0,0,1-1.15,2.2c-.64.37-1.15,0-1.15-.87Z" style="fill:#B0A5F1"></path><path d="M278.72,133a2.45,2.45,0,0,1,1-.34,1.28,1.28,0,0,1,.79.15,1.36,1.36,0,0,1,.53.62,2.51,2.51,0,0,1,.19,1.06,3.72,3.72,0,0,1-.11,1,6,6,0,0,1-.28.85,7.06,7.06,0,0,1-.37.78q-.21.36-.39.72a6.44,6.44,0,0,0-.34.7,2.28,2.28,0,0,0-.21.69,1.68,1.68,0,0,1-.09.32.39.39,0,0,1-.16.21l-1.12.65a.14.14,0,0,1-.18,0,.28.28,0,0,1-.07-.22,3.39,3.39,0,0,1,.12-.91,5.71,5.71,0,0,1,.31-.85c.12-.28.26-.54.4-.8s.28-.49.4-.72a6.28,6.28,0,0,0,.31-.65,1.69,1.69,0,0,0,.12-.6c0-.27-.06-.45-.2-.53s-.34,0-.63.13a1.65,1.65,0,0,0-.59.54,2.06,2.06,0,0,0-.26.57c-.06.18-.11.35-.15.5a.46.46,0,0,1-.23.32l-1.13.65a.12.12,0,0,1-.14,0,.24.24,0,0,1-.06-.19,5.31,5.31,0,0,1,.18-1.15,7,7,0,0,1,.51-1.3,6.41,6.41,0,0,1,.8-1.22A3.88,3.88,0,0,1,278.72,133Zm.81,9.23a.68.68,0,0,1-.08.31.51.51,0,0,1-.17.22l-1.16.67a.15.15,0,0,1-.18,0,.32.32,0,0,1-.07-.23v-1.43a.74.74,0,0,1,.07-.32.48.48,0,0,1,.18-.21l1.16-.67a.12.12,0,0,1,.17,0,.3.3,0,0,1,.08.23Z" style="fill:#B0A5F1"></path></g><g id="freepik--Menu--inject-3"><path d="M114.9,249.25l44.41-25.64c1.19-.69,2.16-.13,2.16,1.25v94.56a4.8,4.8,0,0,1-2.16,3.75L114.9,348.81c-1.2.69-2.17.13-2.17-1.25V253A4.78,4.78,0,0,1,114.9,249.25Z" style="fill:#f0f0f0"></path><path d="M123,253.94l28.17-16.26c1.19-.69,2.16-.2,2.16,1.1a4.65,4.65,0,0,1-2.16,3.59L123,258.63c-1.2.69-2.17.2-2.17-1.09A4.64,4.64,0,0,1,123,253.94Z" style="fill:#fafafa"></path><path d="M120.85,266.07v1.69c0,.83.58,1.17,1.3.75l1.47-.84a2.9,2.9,0,0,0,1.3-2.25v-1.69c0-.83-.59-1.17-1.3-.75l-1.47.84A2.87,2.87,0,0,0,120.85,266.07Z" style="fill:#B0A5F1"></path><path d="M129,262.23c0,1.29,1,1.78,2.16,1.09l20-11.57a4.64,4.64,0,0,0,2.17-3.59c0-1.3-1-1.79-2.17-1.1l-20,11.57A4.65,4.65,0,0,0,129,262.23Z" style="fill:#fafafa"></path><path d="M120.85,275.46v1.69c0,.83.58,1.17,1.3.75l1.47-.84a2.9,2.9,0,0,0,1.3-2.25v-1.69c0-.83-.59-1.17-1.3-.75l-1.47.84A2.87,2.87,0,0,0,120.85,275.46Z" style="fill:#B0A5F1"></path><path d="M129,271.62c0,1.29,1,1.78,2.16,1.09l20-11.57a4.64,4.64,0,0,0,2.17-3.59c0-1.3-1-1.79-2.17-1.1l-20,11.57A4.65,4.65,0,0,0,129,271.62Z" style="fill:#fafafa"></path><path d="M120.85,284.84v1.69c0,.83.58,1.16,1.3.75l1.47-.85a2.88,2.88,0,0,0,1.3-2.25v-1.69c0-.83-.59-1.16-1.3-.75l-1.47.85A2.86,2.86,0,0,0,120.85,284.84Z" style="fill:#B0A5F1"></path><path d="M129,281c0,1.3,1,1.79,2.16,1.1l20-11.57a4.64,4.64,0,0,0,2.17-3.6c0-1.29-1-1.78-2.17-1.09l-20,11.57A4.65,4.65,0,0,0,129,281Z" style="fill:#fafafa"></path><path d="M120.85,294.21v1.69c0,.83.58,1.16,1.3.75l1.47-.85a2.88,2.88,0,0,0,1.3-2.25v-1.69c0-.83-.59-1.16-1.3-.75l-1.47.85A2.86,2.86,0,0,0,120.85,294.21Z" style="fill:#B0A5F1"></path><path d="M129,290.36c0,1.3,1,1.79,2.16,1.1l20-11.57a4.64,4.64,0,0,0,2.17-3.6c0-1.29-1-1.78-2.17-1.09l-20,11.57A4.65,4.65,0,0,0,129,290.36Z" style="fill:#fafafa"></path><path d="M122.85,305.63,151,289.37c1.2-.69,2.17-.2,2.17,1.09a4.64,4.64,0,0,1-2.17,3.6l-28.16,16.26c-1.2.69-2.17.2-2.17-1.09A4.64,4.64,0,0,1,122.85,305.63Z" style="fill:#fafafa"></path><path d="M120.68,317.76v1.69c0,.83.58,1.17,1.3.75l1.46-.84a2.87,2.87,0,0,0,1.3-2.25v-1.69c0-.83-.58-1.17-1.3-.75l-1.46.84A2.87,2.87,0,0,0,120.68,317.76Z" style="fill:#B0A5F1"></path><path d="M128.81,313.92c0,1.29,1,1.78,2.16,1.09l20-11.57a4.64,4.64,0,0,0,2.17-3.59c0-1.3-1-1.79-2.17-1.1l-20,11.57A4.63,4.63,0,0,0,128.81,313.92Z" style="fill:#fafafa"></path><path d="M120.68,327.15v1.69c0,.83.58,1.17,1.3.75l1.46-.84a2.87,2.87,0,0,0,1.3-2.25v-1.69c0-.83-.58-1.17-1.3-.75l-1.46.84A2.87,2.87,0,0,0,120.68,327.15Z" style="fill:#B0A5F1"></path><path d="M128.81,323.31c0,1.29,1,1.78,2.16,1.09l20-11.57a4.64,4.64,0,0,0,2.17-3.59c0-1.3-1-1.79-2.17-1.1l-20,11.57A4.63,4.63,0,0,0,128.81,323.31Z" style="fill:#fafafa"></path><path d="M120.68,336.53v1.69c0,.83.58,1.16,1.3.75l1.46-.85a2.86,2.86,0,0,0,1.3-2.25v-1.69c0-.83-.58-1.16-1.3-.75l-1.46.85A2.86,2.86,0,0,0,120.68,336.53Z" style="fill:#B0A5F1"></path><path d="M128.81,332.68c0,1.3,1,1.79,2.16,1.1l20-11.58a4.64,4.64,0,0,0,2.17-3.59c0-1.3-1-1.79-2.17-1.1l-20,11.58A4.62,4.62,0,0,0,128.81,332.68Z" style="fill:#fafafa"></path></g><g id="freepik--Mails--inject-3"><g id="freepik--Mail--inject-3"><path d="M174.34,212.59c2.22-1.3,4-.25,4,2.34a8.93,8.93,0,0,1-4,7c-2.22,1.28-4,.23-4-2.34A9,9,0,0,1,174.34,212.59Z" style="fill:#B0A5F1"></path><text transform="matrix(0.65, -0.38, 0, 1, 172.27, 221.09)" style="font-size:7.7012200355529785px;fill:#fafafa;font-family:Rubik-Bold, Rubik;font-weight:700;letter-spacing:0.18987116022952832em">M</text><path d="M184.45,211.42c0,1.29,1,1.78,2.16,1.09L214,196.69a4.64,4.64,0,0,0,2.17-3.59c0-1.3-1-1.79-2.17-1.1l-27.39,15.82A4.65,4.65,0,0,0,184.45,211.42Z" style="fill:#455a64"></path><path d="M224.77,186.48l90-51.94c1-.55,1.74-.25,1.74.68a3.57,3.57,0,0,1-1.74,2.67l-90,51.94c-1,.56-1.73.25-1.73-.67A3.55,3.55,0,0,1,224.77,186.48Z" style="fill:#e0e0e0"></path><path d="M166.17,231.85a.5.5,0,0,1-.25-.93L320.28,141.8a.49.49,0,0,1,.68.18.51.51,0,0,1-.18.69L166.42,231.78A.45.45,0,0,1,166.17,231.85Z" style="fill:#e0e0e0"></path></g><g id="freepik--mail--inject-3"><path d="M174.34,231.33c2.22-1.3,4-.25,4,2.34a8.93,8.93,0,0,1-4,7c-2.22,1.28-4,.23-4-2.34A9,9,0,0,1,174.34,231.33Z" style="fill:#B0A5F1"></path><text transform="matrix(0.65, -0.38, 0, 1, 172.53, 239.68)" style="font-size:7.7012200355529785px;fill:#fafafa;font-family:Rubik-Bold, Rubik;font-weight:700;letter-spacing:0.19004023517185203em">H</text><path d="M184.45,230.16c0,1.29,1,1.78,2.16,1.09L214,215.43a4.64,4.64,0,0,0,2.17-3.59c0-1.3-1-1.79-2.17-1.1l-27.39,15.82A4.65,4.65,0,0,0,184.45,230.16Z" style="fill:#455a64"></path><path d="M224.77,205.22l90-51.94c1-.55,1.74-.25,1.74.68a3.57,3.57,0,0,1-1.74,2.67l-90,51.94c-1,.56-1.73.25-1.73-.67A3.55,3.55,0,0,1,224.77,205.22Z" style="fill:#e0e0e0"></path><path d="M166.17,250.59a.5.5,0,0,1-.25-.93l154.36-89.12a.49.49,0,0,1,.68.18.51.51,0,0,1-.18.69L166.42,250.52A.45.45,0,0,1,166.17,250.59Z" style="fill:#e0e0e0"></path></g><g id="freepik--mail--inject-3"><path d="M174.34,250.07c2.22-1.3,4-.25,4,2.34a8.93,8.93,0,0,1-4,7c-2.22,1.28-4,.23-4-2.34A9,9,0,0,1,174.34,250.07Z" style="fill:#B0A5F1"></path><text transform="matrix(0.65, -0.38, 0, 1, 172.92, 258.2)" style="font-size:7.7012200355529785px;fill:#fafafa;font-family:Rubik-Bold, Rubik;font-weight:700;letter-spacing:0.16603159336188494em">L</text><path d="M184.45,248.9c0,1.29,1,1.78,2.16,1.09L214,234.17a4.64,4.64,0,0,0,2.17-3.59c0-1.3-1-1.79-2.17-1.1L186.61,245.3A4.65,4.65,0,0,0,184.45,248.9Z" style="fill:#455a64"></path><path d="M224.77,224l90-51.94c1-.55,1.74-.25,1.74.68a3.57,3.57,0,0,1-1.74,2.67l-90,51.94c-1,.56-1.73.25-1.73-.67A3.55,3.55,0,0,1,224.77,224Z" style="fill:#e0e0e0"></path><path d="M166.17,269.33a.5.5,0,0,1-.25-.93l154.36-89.12a.49.49,0,0,1,.68.18.51.51,0,0,1-.18.69L166.42,269.26A.45.45,0,0,1,166.17,269.33Z" style="fill:#e0e0e0"></path></g><g id="freepik--mail--inject-3"><path d="M174.34,268.81c2.22-1.3,4-.25,4,2.34a8.93,8.93,0,0,1-4,7c-2.22,1.28-4,.23-4-2.34A9,9,0,0,1,174.34,268.81Z" style="fill:#B0A5F1"></path><text transform="matrix(0.65, -0.38, 0, 1, 172.65, 277.09)" style="font-size:7.7012200355529785px;fill:#fafafa;font-family:Rubik-Bold, Rubik;font-weight:700;letter-spacing:0.19004023517185203em">J</text><path d="M184.45,267.64c0,1.29,1,1.78,2.16,1.09L214,252.91a4.64,4.64,0,0,0,2.17-3.59c0-1.3-1-1.79-2.17-1.1L186.61,264A4.65,4.65,0,0,0,184.45,267.64Z" style="fill:#455a64"></path><path d="M224.77,242.7l90-51.94c1-.55,1.74-.25,1.74.68a3.57,3.57,0,0,1-1.74,2.67l-90,51.94c-1,.56-1.73.25-1.73-.67A3.55,3.55,0,0,1,224.77,242.7Z" style="fill:#e0e0e0"></path><path d="M166.17,288.07a.5.5,0,0,1-.25-.93L320.28,198a.49.49,0,0,1,.68.18.51.51,0,0,1-.18.69L166.42,288A.45.45,0,0,1,166.17,288.07Z" style="fill:#e0e0e0"></path></g><g id="freepik--mail--inject-3"><path d="M174.34,287.55c2.22-1.3,4-.25,4,2.34a8.91,8.91,0,0,1-4,7c-2.22,1.28-4,.23-4-2.34A9,9,0,0,1,174.34,287.55Z" style="fill:#B0A5F1"></path><text transform="matrix(0.65, -0.38, 0, 1, 172.63, 295.84)" style="font-size:7.7012200355529785px;fill:#fafafa;font-family:Rubik-Bold, Rubik;font-weight:700;letter-spacing:0.164848068765619em">A</text><path d="M184.45,286.38c0,1.29,1,1.78,2.16,1.09L214,271.65a4.64,4.64,0,0,0,2.17-3.59c0-1.3-1-1.79-2.17-1.1l-27.39,15.82A4.65,4.65,0,0,0,184.45,286.38Z" style="fill:#455a64"></path><path d="M224.77,261.44l90-51.94c1-.55,1.74-.25,1.74.68a3.57,3.57,0,0,1-1.74,2.67l-90,51.94c-1,.56-1.73.25-1.73-.67A3.55,3.55,0,0,1,224.77,261.44Z" style="fill:#e0e0e0"></path><path d="M166.17,306.81a.5.5,0,0,1-.25-.93l154.36-89.12a.49.49,0,0,1,.68.18.51.51,0,0,1-.18.69L166.42,306.74A.45.45,0,0,1,166.17,306.81Z" style="fill:#e0e0e0"></path></g><g id="freepik--mail--inject-3"><path d="M174.34,306.29c2.22-1.3,4-.25,4,2.35a8.91,8.91,0,0,1-4,7c-2.22,1.28-4,.23-4-2.34A9,9,0,0,1,174.34,306.29Z" style="fill:#B0A5F1"></path><text transform="matrix(0.65, -0.38, 0, 1, 172.27, 314.79)" style="font-size:7.7012200355529785px;fill:#fafafa;font-family:Rubik-Bold, Rubik;font-weight:700;letter-spacing:0.18987116022952832em">M</text><path d="M184.45,305.12c0,1.29,1,1.78,2.16,1.09L214,290.39a4.64,4.64,0,0,0,2.17-3.59c0-1.3-1-1.79-2.17-1.1l-27.39,15.82A4.65,4.65,0,0,0,184.45,305.12Z" style="fill:#455a64"></path><path d="M224.77,280.18l90-51.94c1-.55,1.74-.25,1.74.68a3.57,3.57,0,0,1-1.74,2.67l-90,51.94c-1,.56-1.73.25-1.73-.67A3.55,3.55,0,0,1,224.77,280.18Z" style="fill:#e0e0e0"></path><path d="M166.17,325.55a.5.5,0,0,1-.25-.93L320.28,235.5a.49.49,0,0,1,.68.18.51.51,0,0,1-.18.69L166.42,325.48A.45.45,0,0,1,166.17,325.55Z" style="fill:#e0e0e0"></path></g></g></g><g id="freepik--character--inject-3"><path d="M362.49,187.41c-.17,1.08-.33,2.11-.5,3.08-3.87,22.33-7.11,44.68-10.55,53.61-1,2.55-2.7,7.8-9.89,9.51a208.39,208.39,0,0,1-21,2.64c-7.79.68-29.45,1.95-29.45,1.95l36.62-21.14a5.17,5.17,0,0,0,2.33-4V186.79Z" style="fill:#37474f"></path><path d="M382.23,73.91c-14.52-3.85-23.54,6.49-29,16s-6.7,18.24-3.37,21.67,21.76,7.9,21.76,7.9,8-.53,12.72-9.4S399.12,78.42,382.23,73.91Z" style="fill:#263238"></path><g id="freepik--character--inject-3"><path d="M378,144.89c-1.13,6.37-9.31,32.58-15.74,45.48l-.26.12c-6.19,2.94-23.83,1.42-32-.38v-82.8c2.51-.17,10.29.11,13.23,0l1.94,0h0l2.86,0h5.53s.52.55,1.41,1.41h0c2.25,2.14,6.91,6.19,11.74,8.27l1.16-3.66.17.13c.73.54,3.7,2.77,5.95,4.77.2.17.39.35.57.52.36.33.7.65,1,1a11.56,11.56,0,0,1,.75.88C378.93,124.12,380.7,129.79,378,144.89Z" style="fill:#263238"></path><path d="M364.56,73.38a11.26,11.26,0,0,1,1.47,3.2c.46,1.69-.72,4.25-1.35,5.74a43.34,43.34,0,0,1-2.8,5.55l-4,5.51L356.19,99a2.37,2.37,0,0,1-1.25-2.23,82.24,82.24,0,0,1,.16-11.3c.35-6,.39-11,2.08-12.77a5,5,0,0,1,5.08-1.2A4.34,4.34,0,0,1,364.56,73.38Z" style="fill:#37474f"></path><path d="M384.51,72.68A9.85,9.85,0,1,0,391,85,9.85,9.85,0,0,0,384.51,72.68Z" style="fill:#37474f"></path><path d="M360.28,88c-1.41.62-1.67-2.39-2.5-3.53-1-1.33-3.71-2.67-5.53-.09a6.54,6.54,0,0,0,.77,8.09,3,3,0,0,0,4.34.23l-3.76,14.61c.92,4.22,5.16,7.7,11,12.45,4.32-3,3.38-6.73,3.38-6.73l1.49-4.92a17.76,17.76,0,0,0,4.53,1.67c3.19.46,5.6-1.55,7.54-4.57,3.1-4.84,6.16-13.65,7.3-24.57-2.6-3.7-14.27-6.84-22.83-4.51C363.77,85.44,361.7,87.4,360.28,88Z" style="fill:#ffbda7"></path><path d="M372.5,90.19a1.27,1.27,0,1,1-1.24-1.3A1.28,1.28,0,0,1,372.5,90.19Z" style="fill:#263238"></path><path d="M383.89,93.25a1.27,1.27,0,0,1-2.54-.06,1.27,1.27,0,0,1,2.54.06Z" style="fill:#263238"></path><path d="M369.52,108.13s-6.38-3.44-8.54-5.25a6.38,6.38,0,0,1-2.11-3.1,5.55,5.55,0,0,0,.67,3c1.27,2.67,9.43,7.11,9.43,7.11Z" style="fill:#f0997a"></path><path d="M388.77,80A12.32,12.32,0,0,0,387,78.1a55.53,55.53,0,0,0-8.86-7,21,21,0,0,0-7-2.7,8,8,0,0,0-6.18,1.16,6,6,0,0,0-2.92,4c-.14,1.35,1.22,2,1.39,3.24.05.34-.19,4.15-.69,4a4.08,4.08,0,0,0,5.06-1.56c.22-.36.64-1,.85-1.38a.87.87,0,0,1,1.27-.32c1.07.6,1.66,1.3,2.65,1.92a22.65,22.65,0,0,0,9.27,3.48,13.35,13.35,0,0,0,6.12-.49c1.26-.48,1.83-.75,1.06-2Z" style="fill:#37474f"></path><path d="M372.54,83.49l3.65,2.59a2.23,2.23,0,0,1-2.91.29A2.1,2.1,0,0,1,372.54,83.49Z" style="fill:#263238"></path><path d="M381.47,88.46l4.18-.9a1.85,1.85,0,0,1-1.57,2.17C382.83,90,381.57,89.45,381.47,88.46Z" style="fill:#263238"></path><path d="M369.38,98.17l5.28,3.38a3.13,3.13,0,1,1-5.28-3.38Z" style="fill:#b16668"></path><path d="M369.42,99.19a3,3,0,0,0-.41-.08,3,3,0,0,0,1.27,3.38,3.16,3.16,0,0,0,1.87.5A3.89,3.89,0,0,0,369.42,99.19Z" style="fill:#f28f8f"></path><polygon points="377.18 90.33 375.02 99.07 380.15 99.17 377.18 90.33" style="fill:#f0997a"></polygon><path d="M387.34,90.12h0a4.5,4.5,0,0,0-2.47-.69h-.46a10.47,10.47,0,0,0-2,.17c-1.47.25-2.31.66-3.77.23-1.72-.49-1.84-1.59-3.69-3.06a14.59,14.59,0,0,0-2.57-1.6l-.09,0-.34-.17a20.83,20.83,0,0,0-7.74-1.45h-.43a35.73,35.73,0,0,0-3.58.1l-1.66,2.52-.17.25s.3.52.86,1.3c0,0,0,0,0,0,.38.52.88,1.15,1.47,1.82,1.71,1.85,4.23,3.93,7.27,4.43a23.25,23.25,0,0,0,8.35-.09c1-.17,1.63-.27,2,0l.66,2s2.88,2.48,6.22,1.69h0A11.41,11.41,0,0,0,387.34,90.12Zm-15.69,2.19c-3.41-.23-4.6-1.91-4.57-3.29s3.14-3.43,6-1.62c.19.12.35.24.51.35a0,0,0,0,0,0,0,3.92,3.92,0,0,1,1.19,1.4h0C375.62,90.89,374.19,92.47,371.65,92.31Zm12.11,3c-1.61.06-3.68-.79-3.73-2.19a1.4,1.4,0,0,1,.67-1.26h0a4.86,4.86,0,0,1,2.54-.74,4.06,4.06,0,0,1,1.7.21,1.9,1.9,0,0,1,1,.85C386.53,93.28,385.39,95.27,383.76,95.34Z" style="fill:#455a64"></path><path d="M396.14,185.64c-5,4.44-28.12,17.69-28.12,17.69.27-3.05-3.64-7.89-6.26-9.06l20.4-20.39s-1.63-5.94-2.82-9.88c-.61-2-2.5-7.34-3.66-10.18,1.17-4,2-7.2,2.31-8.93,2.7-15.1.93-20.77-1.64-24.28a11.56,11.56,0,0,0-.75-.88c-.29-.3-.63-.62-1-1-.18-.17-.37-.35-.57-.52l-.91-.8c7.41,3.87,11,4.84,15.68,17.84s11.23,33,12.44,38.27S401.79,180.65,396.14,185.64Z" style="fill:#37474f"></path><g id="freepik--Arm--inject-3"><path d="M354.93,196.21a28.42,28.42,0,0,0-5.21.63,20.29,20.29,0,0,0-2.77.56,18.71,18.71,0,0,0-2.62,1.18,38.6,38.6,0,0,1-5.31,2.64,1.39,1.39,0,0,0-.85.54.88.88,0,0,0,.08.83,1.86,1.86,0,0,0,.66.55,7.07,7.07,0,0,0,4.43.54c1.5-.21,3-.62,4.49-.68a1.66,1.66,0,0,1,.91.16c1.11.66-1,3.38-1.54,4a15.18,15.18,0,0,1-3.84,2.77c-.8.48-1.61.93-2.45,1.35a16.41,16.41,0,0,0-2.37,1.19,2.55,2.55,0,0,0-1.21,1.65.79.79,0,0,0,.23.66,1.07,1.07,0,0,0,.58.18,7.77,7.77,0,0,0,1.18.05,1.78,1.78,0,0,1,.92.13c.33.19.48.57.71.88a3.71,3.71,0,0,0,1.62,1,6.82,6.82,0,0,1,.9.44c.32.2.56.46.88.65a5.86,5.86,0,0,0,3.88.47c6-.87,10.75-4.74,13.42-8,1.87-2.32,3.73-5.54,6.64-7.42-.2-3.61-3.64-8.22-6-9.42a7.32,7.32,0,0,1-2.23,1.38A13.67,13.67,0,0,1,354.93,196.21Z" style="fill:#ffbda7"></path></g></g><path d="M390.71,76.51c-2-7.79-17.85-18.07-32.07-10.84-15.17,7.7-14.87,25.27-14.53,33.34a19.72,19.72,0,0,1-.84,8.36l1.93,0c2,0,11.79,6.81,11.79,6.81s-7.5-6.34-3.31-20.14c2.71-8.93,5.75-17,18.22-20.47S390.71,76.51,390.71,76.51Z" style="fill:#37474f"></path><path d="M365.27,121.16a49.93,49.93,0,0,1,8-1.15c2.87,0,7.33-1.19,12.1-8.8,7.15-11.39,11.87-32.14,2.23-37.58a22.56,22.56,0,0,0-11.08-2.71A20.36,20.36,0,0,0,367,73.75a26.22,26.22,0,0,0-7.63,7,44.07,44.07,0,0,0-6.83,13c-1.22,3.77-2,7.05-1.37,11a13.39,13.39,0,0,0,2.15,5.23c3.53,4.93,7.53,7,12,11.12-1.66-2.93-4.19-5.23-6.52-7.66s-4.55-5.15-5.31-8.43a17.77,17.77,0,0,1,.74-9c2-6.83,5.38-13.24,11-17.77a21.25,21.25,0,0,1,11-4.43c3.17-.21,8.26.82,10.94,2.79,3.12,2.3,3.66,5.53,3.68,9,0,6.69-2.49,13.38-5,19.59a25.85,25.85,0,0,1-5.63,9.13C374.35,120,367.14,119.21,365.27,121.16Z" style="fill:#455a64"></path><path d="M362.82,132.28c0-1.73-.59-3.29-.38-5a9,9,0,0,1,1.88-4.56,1.16,1.16,0,0,0,.32-.58c0-.22-.17-.47-.39-.42a.59.59,0,0,0-.2.12c-.54.44-1.13.86-1.62,1.34a5.68,5.68,0,0,0-1.6,3.26,34.61,34.61,0,0,0,.18,5,13.45,13.45,0,0,1-1.24,6.69c-.79,1.43-1.69,2.82-1.65,4.52,0,.34.36.94.69.47a30.82,30.82,0,0,0,1.57-2.74,28.36,28.36,0,0,0,1.36-2.55A14.14,14.14,0,0,0,362.82,132.28Z" style="fill:#B0A5F1"></path><path d="M366.8,141.47a6.65,6.65,0,0,1-.17-2.66c.16-.84.3-1.68.45-2.53.32-1.71.92-3.36,1.14-5.08a9.07,9.07,0,0,0-.74-5c-.55-1.23-1.4-2.48-1.5-3.86,0-.28-.3-.62-.56-.31-.95,1.12,0,2.87.55,4a8.15,8.15,0,0,1,.57,5.24c-.38,1.78-1,3.5-1.18,5.31a8.57,8.57,0,0,0,1.19,5.11C366.65,141.87,366.82,141.56,366.8,141.47Z" style="fill:#B0A5F1"></path><g id="freepik--Hand--inject-3"><path d="M253.61,105.67s6.27-3.61,6.82-3.94c.9.35,1.8.71,2.68,1.11a3.12,3.12,0,0,1,1.76,1.3,6.14,6.14,0,0,1,.48,1.7,24.53,24.53,0,0,0,.79,3.06c.3.92,1,2.39,2.2,2a2.81,2.81,0,0,0,1.16-.93c1.06-1.12,2.39-2,3.46-3.06,3.13-3.25,1-8.56-.55-12.12l2.78-1.61s.84-3.44-.2-4.55-2.85,2.71-3.76,3.8c-.55-.28-1.24-.49-2.25-.89a14,14,0,0,0-2.89-.91,4.19,4.19,0,0,0-2.89.21c-.81.5-1.18,1.49-1.94,2.07s-2.17.68-2.93,1.48c-.52.55-.54,1.34-1.23,1.91a13.55,13.55,0,0,0-2.19,2C254,99.82,253.73,105.07,253.61,105.67Z" style="fill:#ffbda7"></path><path d="M272.41,94.82l.48-.28a9.74,9.74,0,0,0-.22-1.71,2.24,2.24,0,0,0-.78-1.31,10.15,10.15,0,0,1-.66.94C271.94,93,272,93.82,272.41,94.82Z" style="fill:#f0997a"></path></g></g></g></g><g id="freepik--Envelope--inject-3"><g id="freepik--open-envelope--inject-3"><path d="M193.27,279.65l133.38-77,5.34,3.08a5.55,5.55,0,0,1,2.51,4.34v98.4a5.55,5.55,0,0,1-2.51,4.34L203.62,386.92a5.53,5.53,0,0,1-5,0l-2.83-1.63a5.57,5.57,0,0,1-2.51-4.35Z" style="fill:#B0A5F1"></path><path d="M193.27,279.65l133.38-77,5.34,3.08a5.55,5.55,0,0,1,2.51,4.34v98.4a5.55,5.55,0,0,1-2.51,4.34L203.62,386.92a5.53,5.53,0,0,1-5,0l-2.83-1.63a5.57,5.57,0,0,1-2.51-4.35Z" style="opacity:0.30000000000000004"></path><path d="M325.91,194l.55-.3-2.07-1.2h0a3.11,3.11,0,0,0-.55-.27l-58.7-21.75a4,4,0,0,0-4.51,1.44L195,267.81a11.43,11.43,0,0,0-1.69,5.47v6.37l2,1.18,131.35-78.18v-6.37A4.23,4.23,0,0,0,325.91,194Z" style="fill:#B0A5F1"></path><path d="M263.35,172.38a3.32,3.32,0,0,0-.68.72L197,269a10.2,10.2,0,0,0-1.22,2.74l-2-1.18a13.1,13.1,0,0,1,.53-1.45s0,0,0,0c.09-.2.18-.39.28-.58l.05-.09a5.23,5.23,0,0,1,.35-.58l65.66-95.89a3.19,3.19,0,0,1,.33-.4l.35-.32Z" style="opacity:0.1"></path><path d="M326.44,193.69a3.2,3.2,0,0,0-.56-.27l-58.71-21.76a4,4,0,0,0-3.82.72l-2-1.18a4.07,4.07,0,0,1,3.83-.72l58.7,21.75a3.11,3.11,0,0,1,.55.27Z" style="fill:#fff;opacity:0.35000000000000003"></path><path d="M194.61,268.39c.12-.21.23-.41.35-.58C194.84,268,194.73,268.18,194.61,268.39Z" style="fill:#B0A5F1"></path><path d="M261,171.52l.35-.32A3.49,3.49,0,0,0,261,171.52Z" style="fill:#B0A5F1"></path><path d="M193.73,270.55a11.38,11.38,0,0,1,.54-1.45A11.38,11.38,0,0,0,193.73,270.55Z" style="fill:#B0A5F1"></path><path d="M194.28,269.06c.09-.2.19-.39.29-.58C194.47,268.67,194.37,268.86,194.28,269.06Z" style="fill:#B0A5F1"></path><path d="M194.27,269.1v0Z" style="opacity:0.2"></path><polygon points="193.73 270.55 193.73 270.55 193.73 270.55 193.73 270.55" style="opacity:0.2"></polygon><polygon points="261.31 171.2 261.31 171.2 261.31 171.2 261.31 171.2" style="opacity:0.2"></polygon><path d="M194.57,268.48l0-.09Z" style="opacity:0.2"></path><path d="M260.63,171.92a2.51,2.51,0,0,1,.33-.4A2.13,2.13,0,0,0,260.63,171.92Z" style="opacity:0.2"></path><path d="M262.66,173.1,197,269a11.34,11.34,0,0,0-1.7,5.48v6.36l133.39-77v-6.36a4.61,4.61,0,0,0-2.82-4l-58.7-21.76A4.06,4.06,0,0,0,262.66,173.1Z" style="fill:#B0A5F1"></path><path d="M328.69,197.46a4.27,4.27,0,0,0-.72-2.24L195.78,271.73l0,0a10.12,10.12,0,0,0-.46,2.72v6.36l133.39-77Z" style="opacity:0.05"></path><path d="M323,163.56a1.52,1.52,0,0,0-.63-1.39l-4.07-2.35a1.5,1.5,0,0,0-1.53.15l-109.4,63.16a4.78,4.78,0,0,0-2.17,3.75V364.77a1.51,1.51,0,0,0,.64,1.4l4.06,2.35a1.53,1.53,0,0,0,1.53-.16l109.4-63.16a4.78,4.78,0,0,0,2.17-3.75Z" style="fill:#f0f0f0"></path><path d="M211.42,368.36l109.4-63.16a4.78,4.78,0,0,0,2.17-3.75V163.56c0-1.38-1-1.94-2.17-1.25l-109.4,63.17a4.78,4.78,0,0,0-2.17,3.75V367.11C209.25,368.5,210.22,369.06,211.42,368.36Z" style="fill:#fafafa"></path><path d="M321.79,163c.19,0,.2.49.2.54V301.45a3.81,3.81,0,0,1-1.67,2.89L210.92,367.5a1,1,0,0,1-.47.16c-.19,0-.2-.49-.2-.55V229.23a3.8,3.8,0,0,1,1.67-2.89l109.4-63.16a.94.94,0,0,1,.47-.16m0-1a2,2,0,0,0-1,.29l-109.4,63.17a4.78,4.78,0,0,0-2.17,3.75V367.11c0,1,.49,1.55,1.2,1.55a1.9,1.9,0,0,0,1-.3l109.4-63.16a4.78,4.78,0,0,0,2.17-3.75V163.56c0-1-.49-1.54-1.2-1.54Z" style="fill:#e0e0e0"></path><path d="M209.25,367.11a1.63,1.63,0,0,0,.51,1.32l-3.93-2.26a1.51,1.51,0,0,1-.64-1.4V226.88a4.34,4.34,0,0,1,.64-2.13l4.06,2.34a4.37,4.37,0,0,0-.64,2.14Z" style="fill:#e0e0e0"></path><path d="M331.11,309.78a1.21,1.21,0,0,1-.14.2l-55.58-17.63a9.57,9.57,0,0,0-12,3.7L204,384.37l-2.2,1.27h0a1.79,1.79,0,0,1-1.7.19l61.11-91a9.6,9.6,0,0,1,12-3.71Z" style="fill:#B0A5F1"></path><path d="M257.91,304.72l.14-.12L204,384.37l-2.2,1.27h0a1.82,1.82,0,0,1-1.7.19l55.73-82.4Z" style="fill:#fff;opacity:0.4"></path><path d="M331.12,309.78a1.21,1.21,0,0,1-.14.2l-55.59-17.63a9.57,9.57,0,0,0-12,3.7l-2.2-1.28a9.6,9.6,0,0,1,12-3.68Z" style="fill:#fff;opacity:0.4"></path><path d="M334.45,209.44h0c-.12-.72-.5-.92-1-.58a2.89,2.89,0,0,0-.64.66l-.28.39L277.68,293.3l-8.19,11.41A4.67,4.67,0,0,1,265,306.4l-7.07-1.68-54-19.87a2.75,2.75,0,0,0-1.1,0,2,2,0,0,0-.41.13l2-1.17,51.75,19,6.81,2.43a4.65,4.65,0,0,0,4.51-1.69l8.19-11.4,55.12-83.78a2.2,2.2,0,0,1,.62-.57L326.69,205l2-1.15,3.3,1.9A5.72,5.72,0,0,1,334.45,209.44Z" style="fill:#B0A5F1"></path><path d="M277.68,293.3l-8.19,11.41A4.67,4.67,0,0,1,265,306.4l-7.07-1.68.14-.12.34-.54,4.63,1.1a4.65,4.65,0,0,0,4.51-1.69l8.11-11.28Z" style="fill:#fff;opacity:0.4"></path><path d="M332,205.72l-3.3-1.9-2,1.15,4.77,2.75h0a2.41,2.41,0,0,0-.62.57l-55.12,83.78-.08.11h0l2,1.11,54.85-83.39.28-.39a2.89,2.89,0,0,1,.64-.66c.49-.34.87-.14,1,.58h0A5.72,5.72,0,0,0,332,205.72Z" style="opacity:0.1"></path><path d="M205,286.45l-11.77-6.8V380.94a5.57,5.57,0,0,0,2.51,4.35l2.83,1.63a5.53,5.53,0,0,0,5,0l1.42-.81Z" style="fill:#B0A5F1"></path><path d="M205,286.45l-11.77-6.8V380.94a5.57,5.57,0,0,0,2.51,4.35l2.83,1.63a5.53,5.53,0,0,0,5,0l1.42-.81Z" style="opacity:0.2"></path><path d="M334.5,210.07v98.39a5.11,5.11,0,0,1-.78,2.54,5.48,5.48,0,0,1-1.47,1.65l-.1.05a1.53,1.53,0,0,1-.16.11l-128.36,74.1h0a1.79,1.79,0,0,1-1.71.2,1.52,1.52,0,0,1-.75-1.2,3.19,3.19,0,0,1,0-.45v-98.4a2.18,2.18,0,0,1,2.82-2.22l54,19.87L265,306.4a4.67,4.67,0,0,0,4.51-1.69l8.19-11.41,54.85-83.39.28-.39C333.74,208.23,334.5,208.47,334.5,210.07Z" style="fill:#B0A5F1"></path><path d="M332,312.82a1.53,1.53,0,0,0,.16-.11l.1-.06a5.32,5.32,0,0,0,1.47-1.64,5.21,5.21,0,0,0,.78-2.5L277.68,293.3l38.05,28.9Z" style="fill:#B0A5F1"></path><path d="M332,312.82a1.53,1.53,0,0,0,.16-.11l.1-.06a5.32,5.32,0,0,0,1.47-1.64,5.21,5.21,0,0,0,.78-2.5L277.68,293.3l38.05,28.9Z" style="opacity:0.2"></path><path d="M201.12,385.47a1.73,1.73,0,0,0,.78,1.65,1.78,1.78,0,0,0,1.71-.19h0l44.19-25.51,10.09-56.69-56.79,79.12Z" style="fill:#B0A5F1"></path><path d="M263.36,296,201.9,387.12a1.73,1.73,0,0,1-.78-1.65v-1.63l60-89,0,0Z" style="opacity:0.2"></path><path d="M333.72,311a5.32,5.32,0,0,1-1.47,1.64l-.1.06L203.63,386.92h0a1.78,1.78,0,0,1-1.71.19L263.37,296a9.65,9.65,0,0,1,12.08-3.7Z" style="fill:#B0A5F1"></path><path d="M193.74,270.55l2,1.18a10,10,0,0,0-.47,2.74v6.36l-2-1.18v-6.37A10,10,0,0,1,193.74,270.55Z" style="opacity:0.15"></path><polygon points="204.46 283.77 202.43 284.94 200.37 283.75 195.3 280.83 197.27 279.67 204.46 283.77" style="fill:#B0A5F1"></polygon><path d="M204.55,283.81l-7.28-4.15-2,1.17,5.07,2.92,2.06,1.19h0a2.52,2.52,0,0,1,.39-.12,2.75,2.75,0,0,1,1.1,0l4.1,1.51,47.11,17.35.74-1.1Z" style="opacity:0.1"></path><g id="freepik--account-info--inject-3"><path d="M263.63,217.53c7.37-4.26,13.34-.81,13.34,7.7s-6,18.84-13.34,23.1-13.33.8-13.33-7.7S256.27,221.78,263.63,217.53Z" style="fill:#455a64"></path><path d="M263.37,222.25c2.46-1.42,4.46-.27,4.46,2.57a9.88,9.88,0,0,1-4.46,7.73c-2.46,1.42-4.45.26-4.45-2.58A9.85,9.85,0,0,1,263.37,222.25Z" style="fill:#B0A5F1"></path><path d="M271.63,235.22A22.48,22.48,0,0,1,263,245.55c-3.11,1.79-5.91,1.83-7.81.43.74-4.19,3.65-8.68,7.13-10.69l2.53-1.46C267.92,232.05,270.56,232.73,271.63,235.22Z" style="fill:#B0A5F1"></path><path d="M244.12,270.12l41.58-24.05c1.63-.94,2.95-.27,2.95,1.49a6.32,6.32,0,0,1-2.95,4.9l-41.58,24c-1.62.94-2.94.27-2.94-1.49A6.33,6.33,0,0,1,244.12,270.12Z" style="fill:#455a64"></path><path d="M244.12,282.89l41.58-24.05c1.63-.94,2.95-.27,2.95,1.49a6.32,6.32,0,0,1-2.95,4.89l-41.58,24c-1.62.94-2.94.27-2.94-1.49A6.3,6.3,0,0,1,244.12,282.89Z" style="fill:#455a64"></path><path d="M247.16,283.85l.7-1,0-.05,0,0a.19.19,0,0,1,.13-.06s.08,0,.1.09l.14.53a.32.32,0,0,1,0,.19.4.4,0,0,1-.1.17l-.07.06-.81.57.61.36,0,0v0a.17.17,0,0,1,0,.15.38.38,0,0,1-.07.21l-.4.61a.21.21,0,0,1-.13.1.09.09,0,0,1-.11,0l0-.05-.33-.79-.32,1.16,0,.1a.79.79,0,0,1-.12.15.14.14,0,0,1-.13,0l-.39-.15c-.05,0-.07,0-.08-.12a.41.41,0,0,1,0-.19s0,0,0,0l0-.05.6-1.06-.8.35-.06,0a.08.08,0,0,1-.1-.06.24.24,0,0,1,0-.17l.15-.7a.42.42,0,0,1,.09-.19.25.25,0,0,1,.14-.1h0l.7.15-.17-1a.31.31,0,0,1,0-.09.54.54,0,0,1,.05-.19.39.39,0,0,1,.13-.15l.49-.28a.09.09,0,0,1,.12,0,.15.15,0,0,1,.06.13s0,0,0,.09Z" style="fill:#B0A5F1"></path><path d="M252.3,280.88l.7-.95,0-.05,0,0a.19.19,0,0,1,.13-.06.13.13,0,0,1,.1.09l.14.53a.25.25,0,0,1,0,.19.4.4,0,0,1-.1.17l-.07.06-.81.58.61.36s0,0,0,0h0a.19.19,0,0,1,0,.16.37.37,0,0,1-.07.2l-.4.61a.27.27,0,0,1-.13.11.13.13,0,0,1-.11,0l0-.06-.33-.79-.32,1.16,0,.1a.44.44,0,0,1-.12.15c-.05,0-.09.06-.13,0l-.39-.15s-.07-.05-.08-.12a.58.58,0,0,1,0-.19l0,0,0-.06.6-1.06-.8.35-.06,0a.1.1,0,0,1-.11-.05.35.35,0,0,1,0-.18l.15-.7a.56.56,0,0,1,.09-.19.25.25,0,0,1,.14-.1h.05l.7.15-.17-1a.25.25,0,0,1,0-.08.58.58,0,0,1,.05-.2.3.3,0,0,1,.13-.14l.49-.29a.1.1,0,0,1,.12,0,.14.14,0,0,1,0,.13v.09Z" style="fill:#B0A5F1"></path><path d="M257.44,277.92l.7-1,0,0,0,0a.15.15,0,0,1,.13-.05.11.11,0,0,1,.1.08l.14.53a.32.32,0,0,1,0,.19.35.35,0,0,1-.1.17l-.07.06-.81.58.61.36s0,0,0,0l0,0s0,.08,0,.15a.35.35,0,0,1-.07.2l-.4.61a.22.22,0,0,1-.13.11c-.05,0-.08,0-.11,0l0-.06-.33-.78-.32,1.16,0,.09a.44.44,0,0,1-.12.15c-.05.05-.09.06-.13,0l-.39-.14s-.07-.06-.08-.12a.45.45,0,0,1,0-.2v0a.33.33,0,0,0,0-.06l.6-1.06-.8.36s-.06,0-.06,0a.08.08,0,0,1-.1-.05.25.25,0,0,1,0-.17l.15-.7a.37.37,0,0,1,.09-.2.31.31,0,0,1,.14-.1s0,0,0,0h0l.7.15-.17-1a.25.25,0,0,1,0-.08.49.49,0,0,1,.05-.19.39.39,0,0,1,.13-.15l.49-.28a.09.09,0,0,1,.12,0,.15.15,0,0,1,.05.13v.09Z" style="fill:#B0A5F1"></path><path d="M262.58,275l.7-1,0-.05,0,0a.24.24,0,0,1,.13-.05s.08,0,.1.09l.14.53a.28.28,0,0,1,0,.18.38.38,0,0,1-.1.17.23.23,0,0,1-.07.06l-.81.58.61.36s0,0,0,0l0,0a.17.17,0,0,1,0,.15.38.38,0,0,1-.07.21l-.4.61a.24.24,0,0,1-.13.1.09.09,0,0,1-.11,0l0-.06-.33-.78-.32,1.16,0,.09a.61.61,0,0,1-.12.16.14.14,0,0,1-.13,0l-.39-.15c-.05,0-.07-.05-.08-.12a.58.58,0,0,1,0-.19l0,0,0-.06.6-1.06-.8.36-.07,0s-.07,0-.1-.06a.31.31,0,0,1,0-.17l.15-.7a.52.52,0,0,1,.09-.2.28.28,0,0,1,.14-.09h0l.7.14-.17-1a.25.25,0,0,1,0-.08A.49.49,0,0,1,262,274a.39.39,0,0,1,.13-.15l.49-.28a.09.09,0,0,1,.12,0,.16.16,0,0,1,.05.14v.09Z" style="fill:#B0A5F1"></path><path d="M267.72,272l.7-1,0,0s0,0,0,0a.19.19,0,0,1,.13-.06c.05,0,.08,0,.1.09l.14.53a.32.32,0,0,1,0,.19.4.4,0,0,1-.1.17l-.07.06-.81.57.61.36,0,0,0,0a.19.19,0,0,1,0,.16.37.37,0,0,1-.07.2l-.4.61a.2.2,0,0,1-.13.1.09.09,0,0,1-.11,0l0-.05-.33-.79-.32,1.16,0,.1a.33.33,0,0,1-.11.15.14.14,0,0,1-.13,0l-.4-.15s-.06-.05-.07-.12a.58.58,0,0,1,0-.19.05.05,0,0,0,0,0l0-.05.6-1.06-.8.35-.06,0c-.05,0-.08,0-.11-.06a.31.31,0,0,1,0-.17l.15-.7a.34.34,0,0,1,.09-.19.27.27,0,0,1,.13-.1h.06l.7.15-.17-1a.31.31,0,0,1,0-.09.54.54,0,0,1,.05-.19.39.39,0,0,1,.13-.15l.49-.28a.1.1,0,0,1,.12,0,.14.14,0,0,1,0,.13v.09Z" style="fill:#B0A5F1"></path><path d="M272.86,269l.7-.95,0-.05,0,0a.19.19,0,0,1,.13-.06.1.1,0,0,1,.09.09l.15.53a.32.32,0,0,1,0,.19.55.55,0,0,1-.1.17l-.07.06-.81.57.61.37s0,0,0,0h0a.19.19,0,0,1,0,.16.37.37,0,0,1-.07.2l-.4.61a.27.27,0,0,1-.13.11.13.13,0,0,1-.11,0l0-.06-.33-.79-.32,1.16,0,.1a.33.33,0,0,1-.11.15s-.09.06-.13,0l-.39-.15c-.05,0-.07-.05-.08-.12a.63.63,0,0,1,0-.19l0,0,0-.06.6-1.06-.8.35-.07,0s-.07,0-.1-.05a.27.27,0,0,1,0-.18l.15-.7a.37.37,0,0,1,.09-.19.31.31,0,0,1,.14-.1h.05l.7.15-.17-1a.25.25,0,0,1,0-.08.58.58,0,0,1,.05-.2.3.3,0,0,1,.13-.14l.49-.28a.09.09,0,0,1,.12,0,.14.14,0,0,1,.05.13.34.34,0,0,1,0,.09Z" style="fill:#B0A5F1"></path><path d="M278,266.05l.7-1,0,0,0,0a.18.18,0,0,1,.13-.05.09.09,0,0,1,.09.08l.15.54a.29.29,0,0,1,0,.18.45.45,0,0,1-.1.17L279,266l-.81.58.61.36,0,0,0,0s0,.08,0,.15a.4.4,0,0,1-.07.21l-.4.6a.22.22,0,0,1-.13.11c-.05,0-.09,0-.11,0l0-.06-.32-.78-.32,1.16,0,.09a.33.33,0,0,1-.11.15.13.13,0,0,1-.13.05l-.4-.15s-.06-.05-.07-.12a.38.38,0,0,1,0-.19l0,0s0,0,0-.06l.6-1.06-.8.36c-.05,0-.07,0-.07,0s-.07,0-.1-.05a.25.25,0,0,1,0-.17l.15-.7a.37.37,0,0,1,.09-.2.35.35,0,0,1,.13-.1h.06l.7.15-.17-1a.25.25,0,0,1,0-.08.49.49,0,0,1,.05-.19.39.39,0,0,1,.13-.15l.48-.28a.1.1,0,0,1,.13,0,.19.19,0,0,1,.05.13.41.41,0,0,1,0,.1Z" style="fill:#B0A5F1"></path><path d="M283.14,263.08l.7-1,0-.05,0,0A.19.19,0,0,1,284,262q.08,0,.09.09l.15.53a.28.28,0,0,1,0,.18.5.5,0,0,1-.1.18l-.07,0-.81.58.61.36,0,0,0,0a.17.17,0,0,1,0,.15.38.38,0,0,1-.07.21l-.4.61a.24.24,0,0,1-.13.1.09.09,0,0,1-.11,0l0-.05-.32-.79-.32,1.16,0,.09a.42.42,0,0,1-.11.16.14.14,0,0,1-.13,0l-.4-.15s-.06-.05-.07-.12a.58.58,0,0,1,0-.19l0,0s0,0,0-.06l.6-1.05-.8.35-.07,0s-.07,0-.1-.06a.24.24,0,0,1,0-.17l.15-.7a.4.4,0,0,1,.09-.2.26.26,0,0,1,.13-.09H282l.7.15-.17-1a.25.25,0,0,1,0-.08.54.54,0,0,1,0-.19.39.39,0,0,1,.13-.15l.48-.28a.1.1,0,0,1,.13,0,.22.22,0,0,1,.05.14.34.34,0,0,1,0,.09Z" style="fill:#B0A5F1"></path></g></g></g><g id="freepik--Rod--inject-3"><g id="freepik--Hook--inject-3"><path d="M263.63,203.07c1.56-.9,2.82-.17,2.82,1.62a6.22,6.22,0,0,1-2.82,4.88c-1.55.89-2.81.17-2.81-1.63A6.23,6.23,0,0,1,263.63,203.07Z" style="fill:#e0e0e0"></path><path d="M263.63,203.07c1.56-.9,2.82-.17,2.82,1.62a6.22,6.22,0,0,1-2.82,4.88c-1.55.89-2.81.17-2.81-1.63A6.23,6.23,0,0,1,263.63,203.07Z" style="opacity:0.1"></path><path d="M271.4,201c0,2.2-.78,3.87-2.21,4.7a3.93,3.93,0,0,1-2,.54,5.07,5.07,0,0,1-.9-.09h0l-.29-.06a7.6,7.6,0,0,1-1.94-.8,9.43,9.43,0,0,1-1.56-1.14h0a5,5,0,0,1,1.21-1l.17-.09a7.09,7.09,0,0,0,1.07.74,5.18,5.18,0,0,0,1.55.62l.09,0a2.46,2.46,0,0,0,1.79-.21c.87-.5,1.34-1.63,1.34-3.19a12.53,12.53,0,0,0-5.65-9.8l-.1,0a.67.67,0,0,1-.38-.69V183.9h1.75v6A14.45,14.45,0,0,1,271.4,201Z" style="fill:#B0A5F1"></path><path d="M271.4,201c0,2.2-.78,3.87-2.21,4.7a3.93,3.93,0,0,1-2,.54,5.07,5.07,0,0,1-.9-.09h0l-.29-.06a7.6,7.6,0,0,1-1.94-.8,9.43,9.43,0,0,1-1.56-1.14h0a5,5,0,0,1,1.21-1l.17-.09a7.09,7.09,0,0,0,1.07.74,5.18,5.18,0,0,0,1.55.62l.09,0a2.46,2.46,0,0,0,1.79-.21c.87-.5,1.34-1.63,1.34-3.19a12.53,12.53,0,0,0-5.65-9.8l-.1,0a.67.67,0,0,1-.38-.69V183.9h1.75v6A14.45,14.45,0,0,1,271.4,201Z" style="opacity:0.4"></path><path d="M263.52,186.42a2,2,0,0,0,.88.22,1.93,1.93,0,0,0,.87-.21V183.9h-1.75Z" style="opacity:0.2"></path><path d="M265.32,181.88a3.09,3.09,0,0,0,.67-1.81,1.06,1.06,0,0,0-1.71-1,3.19,3.19,0,0,0-1.46,2.54,1.57,1.57,0,0,0,.14.67,2,2,0,1,0,2.36-.41Zm-.79-2.37a.93.93,0,0,1,.47-.14.43.43,0,0,1,.23,0,.71.71,0,0,1,.26.65,2.72,2.72,0,0,1-.67,1.62,1.86,1.86,0,0,0-.42-.05,2,2,0,0,0-1,.3,1.07,1.07,0,0,1-.05-.32A2.73,2.73,0,0,1,264.53,179.51Z" style="fill:#B0A5F1"></path><path d="M265.32,181.88a3.09,3.09,0,0,0,.67-1.81,1.06,1.06,0,0,0-1.71-1,3.19,3.19,0,0,0-1.46,2.54,1.57,1.57,0,0,0,.14.67,2,2,0,1,0,2.36-.41Zm-.79-2.37a.93.93,0,0,1,.47-.14.43.43,0,0,1,.23,0,.71.71,0,0,1,.26.65,2.72,2.72,0,0,1-.67,1.62,1.86,1.86,0,0,0-.42-.05,2,2,0,0,0-1,.3,1.07,1.07,0,0,1-.05-.32A2.73,2.73,0,0,1,264.53,179.51Z" style="opacity:0.45"></path><path d="M264,37.75V179.51a.5.5,0,0,0,1,0V37.9A5.75,5.75,0,0,1,264,37.75Z" style="fill:#263238"></path></g><g id="freepik--rod--inject-3"><path d="M83.49,91.88c-2.19-3.43-4.95-5-7.61-4.77-.55,0-1.17,0-1.87.06a5.48,5.48,0,0,0-.57,0h-.13a5,5,0,0,0-.77.17l-.18,0a6.31,6.31,0,0,0-.68.26l-.25.12a6,6,0,0,0-.6.33c-.11.06-.21.14-.32.21s-.34.24-.51.38-.25.22-.38.33-.29.26-.44.41-.28.31-.41.47-.25.27-.36.42-.32.44-.48.66-.18.25-.26.38c-.24.38-.47.77-.69,1.2-3.63,7-3.1,18.12,1.16,24.79.27.41.55.8.83,1.16s.35.41.52.61.24.28.36.4.25.24.38.36.35.34.53.49l.23.17a8.86,8.86,0,0,0,.73.52l0,0a6.41,6.41,0,0,0,4,1c.7,0,1.29,0,2.08-.07,2.54-.16,5-2,6.77-5.44C88.28,109.64,87.76,98.54,83.49,91.88ZM69.4,111.43c-1.13-2.45-1.47-8.28-1.23-11.3a23.82,23.82,0,0,0,1.32,2.17c2.1,3,3.07.92,3.51,2.91s-1.54,5.31-3.36,6.6A1.76,1.76,0,0,1,69.4,111.43Zm12.34-10.17a2.93,2.93,0,0,0-.58,0l-2.19.09a2.46,2.46,0,0,0-1.28.4C77,99.54,77.76,94.07,79,92c2,2.12,4.37,7.67,4.32,9.32a3.22,3.22,0,0,1,0,.38A7.24,7.24,0,0,0,81.74,101.26Zm-7.62-5.78c-.79,3.81.34,5-.13,6.17-2-1.47-4.42-5.39-3.58-7.61a9.43,9.43,0,0,1,4.79-4.6C75.91,90.31,74.78,92.36,74.12,95.48Zm-2.79,20.69c-.61-1.64,1.2-2,2.91-3.87a6.74,6.74,0,0,0,1.6-3.17c1.33,2.94,2.3,9.37.71,10.3a.58.58,0,0,1-.18.08C74.22,119,71.75,117.33,71.33,116.17Zm9.12-4.46c-.74-4.44-2.26-3.83-2-5.84a2.47,2.47,0,0,1,2-1.89,3.19,3.19,0,0,1,2.87,3c.09,2.68-1.21,6.81-2.37,9.19C80.83,115,80.74,113.39,80.45,111.71Z" style="fill:#e0e0e0"></path><path d="M83.49,91.88c-2.19-3.43-4.95-5-7.61-4.77-.55,0-1.17,0-1.87.06a5.48,5.48,0,0,0-.57,0h-.13a5,5,0,0,0-.77.17l-.18,0a6.31,6.31,0,0,0-.68.26l-.25.12a6,6,0,0,0-.6.33c-.11.06-.21.14-.32.21s-.34.24-.51.38-.25.22-.38.33-.29.26-.44.41-.28.31-.41.47-.25.27-.36.42-.32.44-.48.66-.18.25-.26.38c-.24.38-.47.77-.69,1.2-3.63,7-3.1,18.12,1.16,24.79.27.41.55.8.83,1.16s.35.41.52.61.24.28.36.4.25.24.38.36.35.34.53.49l.23.17a8.86,8.86,0,0,0,.73.52l0,0a6.41,6.41,0,0,0,4,1c.7,0,1.29,0,2.08-.07,2.54-.16,5-2,6.77-5.44C88.28,109.64,87.76,98.54,83.49,91.88ZM69.4,111.43c-1.13-2.45-1.47-8.28-1.23-11.3a23.82,23.82,0,0,0,1.32,2.17c2.1,3,3.07.92,3.51,2.91s-1.54,5.31-3.36,6.6A1.76,1.76,0,0,1,69.4,111.43Zm12.34-10.17a2.93,2.93,0,0,0-.58,0l-2.19.09a2.46,2.46,0,0,0-1.28.4C77,99.54,77.76,94.07,79,92c2,2.12,4.37,7.67,4.32,9.32a3.22,3.22,0,0,1,0,.38A7.24,7.24,0,0,0,81.74,101.26Zm-7.62-5.78c-.79,3.81.34,5-.13,6.17-2-1.47-4.42-5.39-3.58-7.61a9.43,9.43,0,0,1,4.79-4.6C75.91,90.31,74.78,92.36,74.12,95.48Zm-2.79,20.69c-.61-1.64,1.2-2,2.91-3.87a6.74,6.74,0,0,0,1.6-3.17c1.33,2.94,2.3,9.37.71,10.3a.58.58,0,0,1-.18.08C74.22,119,71.75,117.33,71.33,116.17Zm9.12-4.46c-.74-4.44-2.26-3.83-2-5.84a2.47,2.47,0,0,1,2-1.89,3.19,3.19,0,0,1,2.87,3c.09,2.68-1.21,6.81-2.37,9.19C80.83,115,80.74,113.39,80.45,111.71Z" style="opacity:0.2"></path><path d="M81.3,92C77,85.3,70.61,85.6,67,92.63s-3.1,18.12,1.16,24.79,10.68,6.35,14.31-.68S85.57,98.62,81.3,92Zm-3.12-.66c2.16,1.15,5.2,8.11,5.15,10s-1.69.34-3.77.06c-2.64-.37-2.7,2.34-3.73,1.12C74.32,100.68,76,90.14,78.18,91.3Zm-3.11-2c1,.76-.25,2.89-.95,6.21-.88,4.21.6,5.27-.33,6.53-1.38,1.84-6.76-4.75-5.56-7.89S74.05,88.49,75.07,89.27Zm-7.85,22.24c-1.42-3.08-1.61-11.59-.92-13s1.54,1.46,3.19,3.79c2.1,3,3.07.92,3.51,2.91C73.67,108.14,68.65,114.61,67.22,111.51Zm9.33,7.92c-2.07,1.23-6.8-1.53-7.41-3.17s1.21-2,2.92-3.88c2.17-2.37,1.3-4.7,2.51-4.73C76.35,107.62,78.63,118.21,76.55,119.43Zm1.73-7.64c-.75-4.43-2.26-3.83-2-5.83.43-2.95,6.86-2.87,7,1s-2.6,10.65-3.66,11S78.87,115.28,78.28,111.79Z" style="fill:#e0e0e0"></path><path d="M72.71,108.58c1.3,2,3.26,1.94,4.37-.21a8.35,8.35,0,0,0-.35-7.58c-1.31-2-3.27-1.94-4.38.21A8.38,8.38,0,0,0,72.71,108.58Z" style="fill:#455a64"></path><path d="M72.59,92.42,44.85,113h0a2.69,2.69,0,0,0-.83,2.6,8.52,8.52,0,0,0,4.57,6.17,2.71,2.71,0,0,0,2.73,0l27.74-20.58Z" style="fill:#263238"></path><path d="M71.75,95a8.5,8.5,0,0,0,4.58,6.17c2.25,1,3.84-.21,3.56-2.64a8.48,8.48,0,0,0-4.57-6.17C73.07,91.4,71.47,92.58,71.75,95Z" style="fill:#37474f"></path><path d="M261,43.73A36.4,36.4,0,0,1,231.48,57c-19.69-.47-28.24-10.76-30.44-14-1.51,3.71-7.7,16.24-24.47,21.54-16.2,5.13-30.6-2.44-34.25-4.63.08,4.3-1,20.51-20.79,28.55-16.65,6.77-29.54,0-29.67-.11a.53.53,0,0,1-.22-.72.52.52,0,0,1,.73-.22c.13.07,12.59,6.62,28.76.06,22.07-9,20.09-28.3,20.06-28.5a.55.55,0,0,1,.26-.52.53.53,0,0,1,.58,0c.16.11,16,10.8,34.21,5.05,19.17-6.06,24.11-21.73,24.16-21.89a.54.54,0,0,1,1-.09c.07.14,7.54,13.83,30.11,14.37a35.58,35.58,0,0,0,32-17.74.51.51,0,0,1,.71-.25.54.54,0,0,1,.26.71A42.75,42.75,0,0,1,261,43.73Z" style="fill:#263238"></path><path d="M74.75,94.44,87.6,84.88c4.22-3.3,40.43-30.81,90.78-42.22,53.61-12.14,88.71-6,88.51-4.48s-36.82-4.25-87.71,8c-24,5.77-50.37,16.07-85,40.26-1.47,1-15.4,11.32-16.9,12.4,0,0-1.37.53-2.53-1.46C73.36,95,74.75,94.44,74.75,94.44Z" style="fill:#B0A5F1"></path><path d="M229.21,38.67c-29.44.59-81.42,7.1-138.3,46.89C86.8,88.44,83.63,91.2,78,94.9c-1.89,1.23-3.47.91-3.83.45a3.32,3.32,0,0,0,.6,2.05c1.16,2,2.53,1.46,2.53,1.46,1.5-1.08,15.43-11.37,16.9-12.4,34.63-24.19,61-34.49,85-40.26a290.94,290.94,0,0,1,50-7.53Z" style="opacity:0.2"></path></g></g><g id="freepik--speech-bubble--inject-3"><g id="freepik--speech-bubble--inject-3"><g id="freepik--speech-bubble--inject-3"><path d="M445.84,49.29,416.33,67.14a2.43,2.43,0,0,0-1.09,1.9v38.53a2.42,2.42,0,0,0,1.1,1.9l3.94,2.2a2.44,2.44,0,0,0,2.2,0L452,93.82a2.43,2.43,0,0,0,1.1-1.91V53.38a2.38,2.38,0,0,0-1.1-1.89L448,49.28A2.47,2.47,0,0,0,445.84,49.29Z" style="fill:#263238"></path><path d="M421.38,111V72.49a2.42,2.42,0,0,1,1.1-1.9L452,52.74c.61-.35,1.1-.06,1.1.64V91.91a2.43,2.43,0,0,1-1.1,1.91l-29.5,17.84C421.87,112,421.38,111.73,421.38,111Z" style="fill:#455a64"></path><path d="M453.07,53.18c-.09-.55-.54-.75-1.09-.44l-29.5,17.85a2.26,2.26,0,0,0-.77.82l-6.13-3.49a2.11,2.11,0,0,1,.76-.78l29.5-17.85a2.44,2.44,0,0,1,2.2,0l3.94,2.2A2.46,2.46,0,0,1,453.07,53.18Z" style="fill:#37474f"></path><path d="M415.24,82.84l-8.84,9a1,1,0,0,0,.16,1.5c.18.12,6.12,3.52,6.12,3.52l8.7-10.48Z" style="fill:#263238"></path><path d="M421.38,86.38l-8.84,9a1,1,0,0,0,.83,1.64l8-1.15C422.24,95.87,422.24,86.38,421.38,86.38Z" style="fill:#455a64"></path></g></g><g id="freepik--Skull--inject-3"><path d="M428.56,97.8a.84.84,0,0,1,.64-.28,2.4,2.4,0,0,0,1.86-.89l12.2-12.81a3.66,3.66,0,0,0,.83-1.94h0c.13-1,.71-1.83,1.28-1.94.34-.07.58.26.64.77s.25.65.52.6.55.15.64.56a3,3,0,0,1-.76,2.42,1,1,0,0,1-.58.3,3.55,3.55,0,0,0-2.37,1.23L431.81,98a4.22,4.22,0,0,0-1,2.23h0c-.14,1-.72,1.83-1.29,1.92-.34.06-.58-.28-.63-.79s-.24-.65-.52-.62-.54-.16-.62-.58A3,3,0,0,1,428.56,97.8Z" style="fill:#fafafa"></path><path d="M437.48,87.24a9.08,9.08,0,0,0,3.6-3.67,5.15,5.15,0,0,1,.77-3.23c.61-.91,1.66-.72,2.23-2.71s-.69-1.95-.69-3.12.69-2.05.69-5.51-2.19-5.79-6.6-3.24a13.37,13.37,0,0,0-6.6,10.86c0,3.46.69,3.54.69,4.72s-1.26,2.58-.69,3.91,1.61-.06,2.22.14.77.83.77,2.35C433.87,87.74,434.84,88.76,437.48,87.24Z" style="fill:#fafafa"></path><path d="M434.67,77.47a3.55,3.55,0,0,0-1.95,2.18c-.28,1-.2,2.68.82,2.76.7,0,2.24-1.21,2.73-2.75S436,76.91,434.67,77.47Z" style="fill:#455a64"></path><path d="M440.28,74.23c.88-.66,1.68-.71,2-.07a4.35,4.35,0,0,1-.83,3.7c-.7.87-2.24,1.39-2.72.41S438.93,75.24,440.28,74.23Z" style="fill:#455a64"></path><path d="M437.48,82.72c.21.78.78.72,1.07.32s.22-.84,0-1.44a7.5,7.5,0,0,0-1-1.47s-.78,1.78-1,2.67-.32,1.41,0,1.48S437.27,83.75,437.48,82.72Z" style="fill:#455a64"></path><path d="M446.39,87.5a1.24,1.24,0,0,0-.64.47,3,3,0,0,1-1.86,1.25L431.7,90.49c-.44.05-.74-.34-.84-1h0c-.13-.81-.71-1-1.27-.47a2.62,2.62,0,0,0-.65,1.52,2.1,2.1,0,0,1-.52,1.2,2.42,2.42,0,0,0-.63,1.29c-.16,1,.18,1.66.75,1.55a1.19,1.19,0,0,0,.59-.38,4,4,0,0,1,2.36-1.5l11.65-1.22c.5,0,.85.39,1,1.11h0c.14.8.72,1,1.29.43a2.61,2.61,0,0,0,.64-1.52,2,2,0,0,1,.51-1.21,2.48,2.48,0,0,0,.62-1.3C447.31,88.07,447,87.38,446.39,87.5Z" style="fill:#fafafa"></path></g></g></svg>